{
.appVersion = "3087";
.formatVersion = 3;
customParameters = (
{
name = vendorID;
value = XXXX;
},
{
name = panose;
value = (
0,
0,
0,
0,
0,
0,
0,
0,
0,
0
);
},
{
name = unicodeRanges;
value = (
0,
1,
2,
31
);
},
{
name = codePageRanges;
value = (
"1252",
"1250"
);
},
{
name = fsType;
value = (
);
},
{
name = glyphOrder;
value = (
.notdef,
.null,
uni000D,
space,
uni000A,
exclam,
quotedbl,
numbersign,
percent,
ampersand,
quotesingle,
parenleft,
parenright,
asterisk,
plus,
comma,
hyphen,
period,
slash,
zero,
one,
two,
three,
four,
five,
six,
seven,
eight,
nine,
colon,
semicolon,
less,
equal,
greater,
question,
at,
A,
B,
C,
D,
E,
F,
G,
H,
I,
J,
K,
L,
M,
N,
O,
P,
Q,
R,
S,
T,
U,
V,
W,
X,
Y,
Z,
bracketleft,
backslash,
bracketright,
underscore,
asciitilde,
uni00A0,
uni00AD,
multiply,
divide,
quoteleft,
quoteright,
quotedblleft,
quotedblright
);
}
);
date = "2021-06-25 13:17:18 +0000";
familyName = "HK Block";
fontMaster = (
{
customParameters = (
{
name = typoAscender;
value = 809;
},
{
name = typoDescender;
value = -200;
},
{
name = typoLineGap;
value = 0;
},
{
name = winAscent;
value = 1013;
},
{
name = winDescent;
value = 103;
},
{
name = hheaAscender;
value = 809;
},
{
name = hheaDescender;
value = -200;
},
{
name = strikeoutPosition;
value = 258;
},
{
name = strikeoutSize;
value = 49;
},
{
name = "prep Table Assembly";

glyphs = (
{
glyphname = .notdef;
layers = (
{
layerId = m01;
shapes = (
{
closed = 1;
nodes = (
(50,0,l),
(477,0,l),
(477,700,l),
(50,700,l)
);
},
{
closed = 1;
nodes = (
(449,680,l),
(263,371,l),
(78,680,l)
);
},
{
closed = 1;
nodes = (
(457,652,l),
(457,47,l),
(276,350,l)
);
},
{
closed = 1;
nodes = (
(71,49,l),
(71,650,l),
(251,350,l)
);
},
{
closed = 1;
nodes = (
(449,21,l),
(79,21,l),
(264,329,l)
);
}
);
userData = {
assembly = "PUSHW[ ]	/* 1 value pushed */
0 
CALL[ ]	/* CallFunction */
SVTCA[0]	/* SetFreedomAndProjectionVectorToAxis */
PUSHW[ ]	/* 1 value pushed */
0 
RCVT[ ]	/* ReadCVT */
IF[ ]	/* If */
PUSHW[ ]	/* 1 value pushed */
1 
MDAP[1]	/* MoveDirectAbsPt */
ELSE[ ]	/* Else */
PUSHW[ ]	/* 2 values pushed */
1 5 
MIAP[0]	/* MoveIndirectAbsPt */
EIF[ ]	/* EndIf */
PUSHW[ ]	/* 3 values pushed */
0 5 3 
CALL[ ]	/* CallFunction */
PUSHW[ ]	/* 1 value pushed */
1 
SRP0[ ]	/* SetRefPoint0 */
PUSHW[ ]	/* 1 value pushed */
13 
MDRP[11100]	/* MoveDirectRelPt */
SVTCA[1]	/* SetFreedomAndProjectionVectorToAxis */
PUSHW[ ]	/* 1 value pushed */
16 
MDAP[1]	/* MoveDirectAbsPt */
PUSHW[ ]	/* 1 value pushed */
7 
MDAP[1]	/* MoveDirectAbsPt */
PUSHW[ ]	/* 1 value pushed */
1 
MDRP[11100]	/* MoveDirectRelPt */
PUSHW[ ]	/* 1 value pushed */
16 
SRP0[ ]	/* SetRefPoint0 */
PUSHW[ ]	/* 1 value pushed */
2 
MDRP[10000]	/* MoveDirectRelPt */
PUSHW[ ]	/* 1 value pushed */
2 
MDAP[1]	/* MoveDirectAbsPt */
PUSHW[ ]	/* 1 value pushed */
11 
MDRP[11100]	/* MoveDirectRelPt */
PUSHW[ ]	/* 1 value pushed */
6 
MDRP[10000]	/* MoveDirectRelPt */
PUSHW[ ]	/* 1 value pushed */
6 
MDAP[1]	/* MoveDirectAbsPt */
PUSHW[ ]	/* 3 values pushed */
13 2 1 
SRP1[ ]	/* SetRefPoint1 */
SRP2[ ]	/* SetRefPoint2 */
IP[ ]	/* InterpolatePts */
PUSHW[ ]	/* 3 values pushed */
14 2 1 
SRP1[ ]	/* SetRefPoint1 */
SRP2[ ]	/* SetRefPoint2 */
IP[ ]	/* InterpolatePts */
PUSHW[ ]	/* 3 values pushed */
15 2 1 
SRP1[ ]	/* SetRefPoint1 */
SRP2[ ]	/* SetRefPoint2 */
IP[ ]	/* InterpolatePts */
IUP[0]	/* InterpolateUntPts */
IUP[1]	/* InterpolateUntPts */";
};
width = 527;
}
);
note = .notdef;
unicode = (198,208,222,223,230,240,8218,8219);
},
{
glyphname = exclam;
layers = (
{
layerId = m01;
shapes = (
{
closed = 1;
nodes = (
(128,706,l),
(127,706,l)
);
},
{
closed = 1;
nodes = (
(67,689,o),
(39,660,o),
(22,622,o),
(22,600,qs),
(22,256,l),
(232,256,l),
(232,600,ls),
(232,622,o),
(216,660,o),
(187,689,o),
(149,706,o),
(127,706,qs),
(105,706,o)
);
},
{
closed = 1;
nodes = (
(208,178,o),
(176,196,o),
(140,204,o),
(125,204,qs),
(109,204,o),
(74,196,o),
(45,179,o),
(26,152,o),
(26,133,qs),
(26,0,l),
(229,0,l),
(229,133,ls),
(229,151,o)
);
}
);
userData = {
assembly = "PUSHW[ ]	/* 1 value pushed */
0 
CALL[ ]	/* CallFunction */
SVTCA[0]	/* SetFreedomAndProjectionVectorToAxis */
PUSHW[ ]	/* 1 value pushed */
0 
RCVT[ ]	/* ReadCVT */
IF[ ]	/* If */
PUSHW[ ]	/* 1 value pushed */
16 
MDAP[1]	/* MoveDirectAbsPt */
ELSE[ ]	/* Else */
PUSHW[ ]	/* 2 values pushed */
16 5 
MIAP[0]	/* MoveIndirectAbsPt */
EIF[ ]	/* EndIf */
PUSHW[ ]	/* 1 value pushed */
23 
MDRP[11100]	/* MoveDirectRelPt */
NPUSHW[ ]	/* 27 values pushed */
7 23 23 23 39 23 55 23 71 23 87 23 103 23 119 23 135 23 151 23 167 23 183 23 199 23 13 
DELTAP1[ ]	/* DeltaExceptionP1 */
NPUSHW[ ]	/* 5 values pushed */
214 23 230 23 2 
DELTAP1[ ]	/* DeltaExceptionP1 */
SVTCA[1]	/* SetFreedomAndProjectionVectorToAxis */
PUSHW[ ]	/* 3 values pushed */
8 9 3 
CALL[ ]	/* CallFunction */
PUSHW[ ]	/* 1 value pushed */
8 
SRP0[ ]	/* SetRefPoint0 */
PUSHW[ ]	/* 1 value pushed */
15 
MDRP[10000]	/* MoveDirectRelPt */
PUSHW[ ]	/* 1 value pushed */
15 
MDAP[1]	/* MoveDirectAbsPt */
PUSHW[ ]	/* 1 value pushed */
9 
SRP0[ ]	/* SetRefPoint0 */
PUSHW[ ]	/* 1 value pushed */
17 
MDRP[10000]	/* MoveDirectRelPt */
PUSHW[ ]	/* 1 value pushed */
17 
MDAP[1]	/* MoveDirectAbsPt */
IUP[0]	/* InterpolateUntPts */
IUP[1]	/* InterpolateUntPts */";
};
width = 255;
}
);
note = exclam;
unicode = 33;
},
{
glyphname = quotedbl;
layers = (
{
layerId = m01;
shapes = (
{
closed = 1;
nodes = (
(207,988,o),
(176,1005,o),
(140,1014,o),
(125,1014,qs),
(109,1014,o),
(74,1006,o),
(44,989,o),
(25,962,o),
(25,943,qs),
(25,809,l),
(95,809,l),
(95,708,l),
(228,708,l),
(228,943,ls),
(228,961,o)
);
},
{
closed = 1;
nodes = (
(372,1014,qs),
(329,1014,o),
(300,994,qs),
(272,972,o),
(272,943,qs),
(272,809,l),
(342,809,l),
(342,708,l),
(475,708,l),
(475,943,ls),
(475,971,o),
(444,992,qs),
(415,1014,o)
);
}
);
userData = {
assembly = "PUSHW[ ]	/* 1 value pushed */
0 
CALL[ ]	/* CallFunction */
SVTCA[0]	/* SetFreedomAndProjectionVectorToAxis */
PUSHW[ ]	/* 3 values pushed */
10 3 3 
CALL[ ]	/* CallFunction */
PUSHW[ ]	/* 1 value pushed */
3 
SRP0[ ]	/* SetRefPoint0 */
PUSHW[ ]	/* 1 value pushed */
20 
MDRP[10000]	/* MoveDirectRelPt */
PUSHW[ ]	/* 1 value pushed */
10 
SRP0[ ]	/* SetRefPoint0 */
PUSHW[ ]	/* 1 value pushed */
26 
MDRP[10000]	/* MoveDirectRelPt */
SVTCA[1]	/* SetFreedomAndProjectionVectorToAxis */
PUSHW[ ]	/* 1 value pushed */
28 
MDAP[1]	/* MoveDirectAbsPt */
PUSHW[ ]	/* 1 value pushed */
19 
MDAP[1]	/* MoveDirectAbsPt */
PUSHW[ ]	/* 1 value pushed */
28 
SRP0[ ]	/* SetRefPoint0 */
PUSHW[ ]	/* 1 value pushed */
2 
MDRP[10000]	/* MoveDirectRelPt */
PUSHW[ ]	/* 1 value pushed */
2 
MDAP[1]	/* MoveDirectAbsPt */
PUSHW[ ]	/* 1 value pushed */
1 
MDRP[11100]	/* MoveDirectRelPt */
PUSHW[ ]	/* 1 value pushed */
19 
SRP0[ ]	/* SetRefPoint0 */
PUSHW[ ]	/* 1 value pushed */
18 
MDRP[11100]	/* MoveDirectRelPt */
IUP[0]	/* InterpolateUntPts */
IUP[1]	/* InterpolateUntPts */";
};
width = 500;
}
);
note = quotedbl;
unicode = 34;
},
{
glyphname = numbersign;
layers = (
{
layerId = m01;
shapes = (
{
closed = 1;
nodes = (
(498,697,l),
(497,697,l)
);
},
{
closed = 1;
nodes = (
(241,697,l),
(240,697,l)
);
},
{
closed = 1;
nodes = (
(634,372,o),
(672,389,o),
(701,417,o),
(718,455,o),
(718,477,qs),
(718,499,o),
(701,537,o),
(672,566,o),
(634,582,o),
(612,582,qs),
(602,582,l),
(602,592,ls),
(602,614,o),
(586,652,o),
(557,681,o),
(519,697,o),
(497,697,qs),
(475,697,o),
(437,681,o),
(409,652,o),
(392,614,o),
(392,592,qs),
(392,582,l),
(346,582,l),
(346,592,ls),
(346,614,o),
(330,652,o),
(301,681,o),
(263,697,o),
(241,697,qs),
(219,697,o),
(181,681,o),
(152,652,o),
(135,614,o),
(135,592,qs),
(135,582,l),
(20,582,l),
(20,372,l),
(135,372,l),
(135,325,l),
(20,325,l),
(20,115,l),
(135,115,l),
(135,0,l),
(346,0,l),
(346,115,l),
(392,115,l),
(392,0,l),
(602,0,l),
(602,115,l),
(612,115,ls),
(634,115,o),
(672,132,o),
(701,160,o),
(718,198,o),
(718,220,qs),
(718,242,o),
(701,280,o),
(672,309,o),
(634,325,o),
(612,325,qs),
(602,325,l),
(602,372,l),
(612,372,ls)
);
},
{
closed = 1;
nodes = (
(346,325,l),
(346,372,l),
(392,372,l),
(392,325,l)
);
}
);
userData = {
assembly = "PUSHW[ ]	/* 1 value pushed */
0 
CALL[ ]	/* CallFunction */
SVTCA[0]	/* SetFreedomAndProjectionVectorToAxis */
PUSHW[ ]	/* 1 value pushed */
0 
RCVT[ ]	/* ReadCVT */
IF[ ]	/* If */
PUSHW[ ]	/* 1 value pushed */
18 
MDAP[1]	/* MoveDirectAbsPt */
ELSE[ ]	/* Else */
PUSHW[ ]	/* 2 values pushed */
18 5 
MIAP[0]	/* MoveIndirectAbsPt */
EIF[ ]	/* EndIf */
PUSHW[ ]	/* 1 value pushed */
0 
RCVT[ ]	/* ReadCVT */
IF[ ]	/* If */
PUSHW[ ]	/* 1 value pushed */
22 
MDAP[1]	/* MoveDirectAbsPt */
ELSE[ ]	/* Else */
PUSHW[ ]	/* 2 values pushed */
22 5 
MIAP[0]	/* MoveIndirectAbsPt */
EIF[ ]	/* EndIf */
PUSHW[ ]	/* 3 values pushed */
6 16 3 
CALL[ ]	/* CallFunction */
PUSHW[ ]	/* 3 values pushed */
56 4 3 
CALL[ ]	/* CallFunction */
PUSHW[ ]	/* 1 value pushed */
16 
SRP0[ ]	/* SetRefPoint0 */
PUSHW[ ]	/* 1 value pushed */
20 
MDRP[10000]	/* MoveDirectRelPt */
PUSHW[ ]	/* 1 value pushed */
16 
SRP0[ ]	/* SetRefPoint0 */
PUSHW[ ]	/* 1 value pushed */
24 
MDRP[10000]	/* MoveDirectRelPt */
PUSHW[ ]	/* 1 value pushed */
6 
SRP0[ ]	/* SetRefPoint0 */
PUSHW[ ]	/* 1 value pushed */
26 
MDRP[10000]	/* MoveDirectRelPt */
PUSHW[ ]	/* 1 value pushed */
4 
SRP0[ ]	/* SetRefPoint0 */
PUSHW[ ]	/* 1 value pushed */
28 
MDRP[10000]	/* MoveDirectRelPt */
PUSHW[ ]	/* 1 value pushed */
56 
SRP0[ ]	/* SetRefPoint0 */
PUSHW[ ]	/* 1 value pushed */
30 
MDRP[10000]	/* MoveDirectRelPt */
PUSHW[ ]	/* 1 value pushed */
56 
SRP0[ ]	/* SetRefPoint0 */
PUSHW[ ]	/* 1 value pushed */
43 
MDRP[10000]	/* MoveDirectRelPt */
PUSHW[ ]	/* 1 value pushed */
4 
SRP0[ ]	/* SetRefPoint0 */
PUSHW[ ]	/* 1 value pushed */
68 
MDRP[10000]	/* MoveDirectRelPt */
PUSHW[ ]	/* 1 value pushed */
6 
SRP0[ ]	/* SetRefPoint0 */
PUSHW[ ]	/* 1 value pushed */
70 
MDRP[10000]	/* MoveDirectRelPt */
SVTCA[1]	/* SetFreedomAndProjectionVectorToAxis */
PUSHW[ ]	/* 1 value pushed */
72 
MDAP[1]	/* MoveDirectAbsPt */
PUSHW[ ]	/* 1 value pushed */
19 
MDAP[1]	/* MoveDirectAbsPt */
PUSHW[ ]	/* 1 value pushed */
18 
MDRP[11100]	/* MoveDirectRelPt */
PUSHW[ ]	/* 1 value pushed */
4 
MDRP[10000]	/* MoveDirectRelPt */
PUSHW[ ]	/* 1 value pushed */
72 
SRP0[ ]	/* SetRefPoint0 */
PUSHW[ ]	/* 1 value pushed */
23 
MDRP[10000]	/* MoveDirectRelPt */
PUSHW[ ]	/* 1 value pushed */
23 
MDAP[1]	/* MoveDirectAbsPt */
PUSHW[ ]	/* 1 value pushed */
22 
MDRP[11100]	/* MoveDirectRelPt */
PUSHW[ ]	/* 1 value pushed */
23 
SRP0[ ]	/* SetRefPoint0 */
PUSHW[ ]	/* 1 value pushed */
27 
MDRP[10000]	/* MoveDirectRelPt */
PUSHW[ ]	/* 1 value pushed */
23 
SRP0[ ]	/* SetRefPoint0 */
PUSHW[ ]	/* 1 value pushed */
31 
MDRP[10000]	/* MoveDirectRelPt */
PUSHW[ ]	/* 1 value pushed */
22 
SRP0[ ]	/* SetRefPoint0 */
PUSHW[ ]	/* 1 value pushed */
42 
MDRP[10000]	/* MoveDirectRelPt */
PUSHW[ ]	/* 1 value pushed */
19 
SRP0[ ]	/* SetRefPoint0 */
PUSHW[ ]	/* 1 value pushed */
44 
MDRP[10000]	/* MoveDirectRelPt */
PUSHW[ ]	/* 1 value pushed */
18 
SRP0[ ]	/* SetRefPoint0 */
PUSHW[ ]	/* 1 value pushed */
55 
MDRP[10000]	/* MoveDirectRelPt */
PUSHW[ ]	/* 1 value pushed */
19 
SRP0[ ]	/* SetRefPoint0 */
PUSHW[ ]	/* 1 value pushed */
68 
MDRP[10000]	/* MoveDirectRelPt */
PUSHW[ ]	/* 1 value pushed */
22 
SRP0[ ]	/* SetRefPoint0 */
PUSHW[ ]	/* 1 value pushed */
69 
MDRP[10000]	/* MoveDirectRelPt */
IUP[0]	/* InterpolateUntPts */
IUP[1]	/* InterpolateUntPts */";
};
width = 729;
}
);
note = numbersign;
unicode = 35;
},
{
glyphname = percent;
layers = (
{
layerId = m01;
shapes = (
{
closed = 1;
nodes = (
(283,421,o),
(328,463,o),
(355,521,o),
(355,555,qs),
(355,589,o),
(328,646,o),
(283,688,o),
(223,712,o),
(190,712,qs),
(157,712,o),
(98,688,o),
(52,646,o),
(25,589,o),
(25,555,qs),
(25,521,o),
(52,463,o),
(97,421,o),
(157,397,o),
(190,397,qs),
(223,397,o)
);
},
{
closed = 1;
nodes = (
(547,706,o),
(533,706,qs),
(498,706,o),
(441,664,o),
(431,629,q),
(161,0,l),
(385,2,l),
(634,573,l),
(640,594,o),
(634,635,o),
(614,670,o),
(582,696,o),
(561,702,q),
(561,702,l),
(560,703,l)
);
},
{
closed = 1;
nodes = (
(177,566,o),
(180,569,q),
(186,573,o),
(190,573,qs),
(203,573,o),
(203,560,qs),
(203,536,l),
(177,536,l),
(177,560,ls)
);
},
{
closed = 1;
nodes = (
(799,249,o),
(754,291,o),
(694,314,o),
(661,314,qs),
(628,314,o),
(569,290,o),
(523,248,o),
(496,190,o),
(496,157,qs),
(496,124,o),
(523,66,o),
(569,24,o),
(628,0,o),
(661,0,qs),
(694,0,o),
(754,23,o),
(799,65,o),
(826,123,o),
(826,157,qs),
(826,191,o)
);
},
{
closed = 1;
nodes = (
(648,163,ls),
(648,175,o),
(661,175,qs),
(666,175,o),
(675,168,o),
(675,163,qs),
(675,139,l),
(648,139,l)
);
}
);
userData = {
assembly = "PUSHW[ ]	/* 1 value pushed */
0 
CALL[ ]	/* CallFunction */
SVTCA[0]	/* SetFreedomAndProjectionVectorToAxis */
PUSHW[ ]	/* 1 value pushed */
0 
RCVT[ ]	/* ReadCVT */
IF[ ]	/* If */
PUSHW[ ]	/* 1 value pushed */
10 
MDAP[1]	/* MoveDirectAbsPt */
ELSE[ ]	/* Else */
PUSHW[ ]	/* 2 values pushed */
10 7 
MIAP[0]	/* MoveIndirectAbsPt */
EIF[ ]	/* EndIf */
PUSHW[ ]	/* 1 value pushed */
0 
RCVT[ ]	/* ReadCVT */
IF[ ]	/* If */
PUSHW[ ]	/* 1 value pushed */
20 
MDAP[1]	/* MoveDirectAbsPt */
ELSE[ ]	/* Else */
PUSHW[ ]	/* 2 values pushed */
20 7 
MIAP[0]	/* MoveIndirectAbsPt */
EIF[ ]	/* EndIf */
PUSHW[ ]	/* 1 value pushed */
0 
RCVT[ ]	/* ReadCVT */
IF[ ]	/* If */
PUSHW[ ]	/* 1 value pushed */
32 
MDAP[1]	/* MoveDirectAbsPt */
ELSE[ ]	/* Else */
PUSHW[ ]	/* 2 values pushed */
32 7 
MIAP[0]	/* MoveIndirectAbsPt */
EIF[ ]	/* EndIf */
PUSHW[ ]	/* 1 value pushed */
0 
RCVT[ ]	/* ReadCVT */
IF[ ]	/* If */
PUSHW[ ]	/* 1 value pushed */
27 
MDAP[1]	/* MoveDirectAbsPt */
ELSE[ ]	/* Else */
PUSHW[ ]	/* 2 values pushed */
27 5 
MIAP[0]	/* MoveIndirectAbsPt */
EIF[ ]	/* EndIf */
PUSHW[ ]	/* 1 value pushed */
0 
RCVT[ ]	/* ReadCVT */
IF[ ]	/* If */
PUSHW[ ]	/* 1 value pushed */
49 
MDAP[1]	/* MoveDirectAbsPt */
ELSE[ ]	/* Else */
PUSHW[ ]	/* 2 values pushed */
49 5 
MIAP[0]	/* MoveIndirectAbsPt */
EIF[ ]	/* EndIf */
PUSHW[ ]	/* 3 values pushed */
59 68 3 
CALL[ ]	/* CallFunction */
PUSHW[ ]	/* 3 values pushed */
35 0 3 
CALL[ ]	/* CallFunction */
PUSHW[ ]	/* 1 value pushed */
10 
SRP0[ ]	/* SetRefPoint0 */
PUSHW[ ]	/* 1 value pushed */
39 
MDRP[11100]	/* MoveDirectRelPt */
PUSHW[ ]	/* 1 value pushed */
49 
SRP0[ ]	/* SetRefPoint0 */
PUSHW[ ]	/* 1 value pushed */
64 
MDRP[11100]	/* MoveDirectRelPt */
SVTCA[1]	/* SetFreedomAndProjectionVectorToAxis */
PUSHW[ ]	/* 3 values pushed */
15 37 3 
CALL[ ]	/* CallFunction */
PUSHW[ ]	/* 3 values pushed */
44 65 3 
CALL[ ]	/* CallFunction */
PUSHW[ ]	/* 3 values pushed */
43 5 3 
CALL[ ]	/* CallFunction */
PUSHW[ ]	/* 3 values pushed */
70 54 3 
CALL[ ]	/* CallFunction */
PUSHW[ ]	/* 3 values pushed */
28 5 43 
SRP1[ ]	/* SetRefPoint1 */
SRP2[ ]	/* SetRefPoint2 */
IP[ ]	/* InterpolatePts */
IUP[0]	/* InterpolateUntPts */
IUP[1]	/* InterpolateUntPts */";
};
width = 851;
}
);
note = percent;
unicode = 37;
},
{
glyphname = ampersand;
layers = (
{
layerId = m01;
shapes = (
{
closed = 1;
nodes = (
(598,335,l),
(490,440,l),
(430,356,l),
(430,530,ls),
(430,566,o),
(402,630,o),
(354,678,o),
(290,706,o),
(254,706,qs),
(218,706,o),
(154,678,o),
(106,630,o),
(78,566,o),
(78,530,qs),
(78,408,l),
(12,408,l),
(12,242,ls),
(12,192,o),
(50,104,o),
(116,38,o),
(204,0,o),
(254,0,qs),
(310,0,o),
(412,49,o),
(446,94,q),
(550,0,l),
(657,118,l),
(530,231,l)
);
},
{
closed = 1;
nodes = (
(224,557,o),
(232,564,qs),
(241,573,o),
(253,573,qs),
(266,573,o),
(276,564,q),
(284,554,o),
(284,543,qs),
(284,457,l),
(224,512,l),
(224,543,ls)
);
},
{
closed = 1;
nodes = (
(296,205,o),
(272,183,o),
(255,183,qs),
(244,183,o),
(230,190,o),
(222,198,q),
(212,211,o),
(212,223,qs),
(212,307,l),
(296,231,l),
(296,223,ls)
);
}
);
userData = {
assembly = "PUSHW[ ]	/* 1 value pushed */
0 
CALL[ ]	/* CallFunction */
SVTCA[0]	/* SetFreedomAndProjectionVectorToAxis */
PUSHW[ ]	/* 1 value pushed */
0 
RCVT[ ]	/* ReadCVT */
IF[ ]	/* If */
PUSHW[ ]	/* 1 value pushed */
18 
MDAP[1]	/* MoveDirectAbsPt */
ELSE[ ]	/* Else */
PUSHW[ ]	/* 2 values pushed */
18 7 
MIAP[0]	/* MoveIndirectAbsPt */
EIF[ ]	/* EndIf */
PUSHW[ ]	/* 1 value pushed */
0 
RCVT[ ]	/* ReadCVT */
IF[ ]	/* If */
PUSHW[ ]	/* 1 value pushed */
1 
MDAP[1]	/* MoveDirectAbsPt */
ELSE[ ]	/* Else */
PUSHW[ ]	/* 2 values pushed */
1 5 
MIAP[0]	/* MoveIndirectAbsPt */
EIF[ ]	/* EndIf */
PUSHW[ ]	/* 1 value pushed */
0 
RCVT[ ]	/* ReadCVT */
IF[ ]	/* If */
PUSHW[ ]	/* 1 value pushed */
5 
MDAP[1]	/* MoveDirectAbsPt */
ELSE[ ]	/* Else */
PUSHW[ ]	/* 2 values pushed */
5 5 
MIAP[0]	/* MoveIndirectAbsPt */
EIF[ ]	/* EndIf */
PUSHW[ ]	/* 3 values pushed */
24 1 18 
SRP1[ ]	/* SetRefPoint1 */
SRP2[ ]	/* SetRefPoint2 */
IP[ ]	/* InterpolatePts */
PUSHW[ ]	/* 3 values pushed */
29 1 18 
SRP1[ ]	/* SetRefPoint1 */
SRP2[ ]	/* SetRefPoint2 */
IP[ ]	/* InterpolatePts */
PUSHW[ ]	/* 1 value pushed */
18 
SRP0[ ]	/* SetRefPoint0 */
PUSHW[ ]	/* 1 value pushed */
34 
MDRP[11100]	/* MoveDirectRelPt */
NPUSHW[ ]	/* 5 values pushed */
217 34 233 34 2 
DELTAP1[ ]	/* DeltaExceptionP1 */
NPUSHW[ ]	/* 27 values pushed */
8 34 24 34 40 34 56 34 72 34 88 34 104 34 120 34 136 34 152 34 168 34 184 34 200 34 13 
DELTAP1[ ]	/* DeltaExceptionP1 */
PUSHW[ ]	/* 3 values pushed */
40 1 18 
SRP1[ ]	/* SetRefPoint1 */
SRP2[ ]	/* SetRefPoint2 */
IP[ ]	/* InterpolatePts */
PUSHW[ ]	/* 1 value pushed */
5 
SRP0[ ]	/* SetRefPoint0 */
PUSHW[ ]	/* 1 value pushed */
46 
MDRP[11100]	/* MoveDirectRelPt */
NPUSHW[ ]	/* 27 values pushed */
7 46 23 46 39 46 55 46 71 46 87 46 103 46 119 46 135 46 151 46 167 46 183 46 199 46 13 
DELTAP1[ ]	/* DeltaExceptionP1 */
NPUSHW[ ]	/* 5 values pushed */
214 46 230 46 2 
DELTAP1[ ]	/* DeltaExceptionP1 */
SVTCA[1]	/* SetFreedomAndProjectionVectorToAxis */
PUSHW[ ]	/* 3 values pushed */
28 13 3 
CALL[ ]	/* CallFunction */
PUSHW[ ]	/* 3 values pushed */
23 30 3 
CALL[ ]	/* CallFunction */
PUSHW[ ]	/* 3 values pushed */
41 13 28 
SRP1[ ]	/* SetRefPoint1 */
SRP2[ ]	/* SetRefPoint2 */
IP[ ]	/* InterpolatePts */
PUSHW[ ]	/* 1 value pushed */
41 
MDAP[1]	/* MoveDirectAbsPt */
PUSHW[ ]	/* 1 value pushed */
10 
MDRP[11100]	/* MoveDirectRelPt */
PUSHW[ ]	/* 3 values pushed */
40 13 28 
SRP1[ ]	/* SetRefPoint1 */
SRP2[ ]	/* SetRefPoint2 */
IP[ ]	/* InterpolatePts */
IUP[0]	/* InterpolateUntPts */
IUP[1]	/* InterpolateUntPts */";
};
width = 683;
}
);
note = ampersand;
unicode = 38;
},
{
glyphname = quotesingle;
layers = (
{
layerId = m01;
shapes = (
{
closed = 1;
nodes = (
(207,988,o),
(176,1005,o),
(140,1014,o),
(125,1014,qs),
(109,1014,o),
(74,1006,o),
(44,989,o),
(25,962,o),
(25,943,qs),
(25,809,l),
(95,809,l),
(95,708,l),
(228,708,l),
(228,943,ls),
(228,961,o)
);
}
);
userData = {
assembly = "PUSHW[ ]	/* 1 value pushed */
0 
CALL[ ]	/* CallFunction */
SVTCA[0]	/* SetFreedomAndProjectionVectorToAxis */
PUSHW[ ]	/* 3 values pushed */
10 3 3 
CALL[ ]	/* CallFunction */
SVTCA[1]	/* SetFreedomAndProjectionVectorToAxis */
PUSHW[ ]	/* 3 values pushed */
1 2 3 
CALL[ ]	/* CallFunction */
IUP[0]	/* InterpolateUntPts */
IUP[1]	/* InterpolateUntPts */";
};
width = 253;
}
);
note = quotesingle;
unicode = 39;
},
{
glyphname = parenleft;
layers = (
{
layerId = m01;
shapes = (
{
closed = 1;
nodes = (
(245,388,o),
(245,402,q),
(245,402,o),
(244,404,q),
(245,422,o),
(254,431,qs),
(676,871,l),
(480,871,ls),
(383,871,o),
(212,797,o),
(85,670,o),
(11,499,o),
(11,402,qs),
(11,305,o),
(85,133,o),
(212,6,o),
(383,-68,o),
(480,-68,qs),
(677,-68,l),
(254,379,ls)
);
}
);
userData = {
assembly = "PUSHW[ ]	/* 1 value pushed */
0 
CALL[ ]	/* CallFunction */
SVTCA[0]	/* SetFreedomAndProjectionVectorToAxis */
PUSHW[ ]	/* 3 values pushed */
12 0 3 
CALL[ ]	/* CallFunction */
SVTCA[1]	/* SetFreedomAndProjectionVectorToAxis */
PUSHW[ ]	/* 3 values pushed */
15 6 3 
CALL[ ]	/* CallFunction */
NPUSHW[ ]	/* 27 values pushed */
6 15 22 15 38 15 54 15 70 15 86 15 102 15 118 15 134 15 150 15 166 15 182 15 198 15 13 
DELTAP1[ ]	/* DeltaExceptionP1 */
NPUSHW[ ]	/* 5 values pushed */
213 15 229 15 2 
DELTAP1[ ]	/* DeltaExceptionP1 */
PUSHW[ ]	/* 1 value pushed */
15 
SRP0[ ]	/* SetRefPoint0 */
PUSHW[ ]	/* 1 value pushed */
17 
MDRP[10000]	/* MoveDirectRelPt */
PUSHW[ ]	/* 1 value pushed */
17 
MDAP[1]	/* MoveDirectAbsPt */
IUP[0]	/* InterpolateUntPts */
IUP[1]	/* InterpolateUntPts */";
};
width = 727;
}
);
note = parenleft;
unicode = 40;
},
{
glyphname = parenright;
layers = (
{
layerId = m01;
shapes = (
{
closed = 1;
nodes = (
(473,425,ls),
(478,420,o),
(481,409,o),
(482,401,qs),
(482,399,l),
(482,398,ls),
(480,381,o),
(473,372,q),
(51,-68,l),
(246,-68,ls),
(344,-68,o),
(515,6,o),
(642,134,o),
(716,305,o),
(716,402,qs),
(716,499,o),
(642,670,o),
(515,797,o),
(344,871,o),
(246,871,qs),
(50,871,l)
);
}
);
userData = {
assembly = "PUSHW[ ]	/* 1 value pushed */
0 
CALL[ ]	/* CallFunction */
SVTCA[0]	/* SetFreedomAndProjectionVectorToAxis */
PUSHW[ ]	/* 3 values pushed */
0 10 3 
CALL[ ]	/* CallFunction */
SVTCA[1]	/* SetFreedomAndProjectionVectorToAxis */
PUSHW[ ]	/* 3 values pushed */
5 16 3 
CALL[ ]	/* CallFunction */
NPUSHW[ ]	/* 5 values pushed */
218 16 234 16 2 
DELTAP1[ ]	/* DeltaExceptionP1 */
NPUSHW[ ]	/* 27 values pushed */
9 16 25 16 41 16 57 16 73 16 89 16 105 16 121 16 137 16 153 16 169 16 185 16 201 16 13 
DELTAP1[ ]	/* DeltaExceptionP1 */
PUSHW[ ]	/* 1 value pushed */
16 
SRP0[ ]	/* SetRefPoint0 */
PUSHW[ ]	/* 1 value pushed */
14 
MDRP[10000]	/* MoveDirectRelPt */
IUP[0]	/* InterpolateUntPts */
IUP[1]	/* InterpolateUntPts */";
};
width = 727;
}
);
note = parenright;
unicode = 41;
},
{
glyphname = asterisk;
layers = (
{
layerId = m01;
shapes = (
{
closed = 1;
nodes = (
(316,766,ls),
(336,777,o),
(346,821,o),
(335,840,qs),
(317,866,o),
(288,866,qs),
(275,866,o),
(261,858,qs),
(227,838,l),
(227,872,ls),
(227,894,o),
(197,925,o),
(174,926,qs),
(151,926,o),
(120,895,o),
(120,873,qs),
(120,836,l),
(84,858,ls),
(70,866,o),
(56,866,qs),
(28,866,o),
(10,840,qs),
(-2,821,o),
(9,777,o),
(28,766,qs),
(68,742,l),
(2,702,l),
(58,610,l),
(118,646,l),
(117,570,l),
(224,570,l),
(225,647,l),
(287,610,l),
(342,702,l),
(276,742,l)
);
}
);
userData = {
assembly = "PUSHW[ ]	/* 1 value pushed */
0 
CALL[ ]	/* CallFunction */
SVTCA[0]	/* SetFreedomAndProjectionVectorToAxis */
PUSHW[ ]	/* 3 values pushed */
21 3 3 
CALL[ ]	/* CallFunction */
PUSHW[ ]	/* 3 values pushed */
5 3 21 
SRP1[ ]	/* SetRefPoint1 */
SRP2[ ]	/* SetRefPoint2 */
IP[ ]	/* InterpolatePts */
PUSHW[ ]	/* 3 values pushed */
8 3 21 
SRP1[ ]	/* SetRefPoint1 */
SRP2[ ]	/* SetRefPoint2 */
IP[ ]	/* InterpolatePts */
PUSHW[ ]	/* 3 values pushed */
17 3 21 
SRP1[ ]	/* SetRefPoint1 */
SRP2[ ]	/* SetRefPoint2 */
IP[ ]	/* InterpolatePts */
PUSHW[ ]	/* 3 values pushed */
25 3 21 
SRP1[ ]	/* SetRefPoint1 */
SRP2[ ]	/* SetRefPoint2 */
IP[ ]	/* InterpolatePts */
PUSHW[ ]	/* 3 values pushed */
34 3 21 
SRP1[ ]	/* SetRefPoint1 */
SRP2[ ]	/* SetRefPoint2 */
IP[ ]	/* InterpolatePts */
SVTCA[1]	/* SetFreedomAndProjectionVectorToAxis */
PUSHW[ ]	/* 3 values pushed */
3 4 3 
CALL[ ]	/* CallFunction */
PUSHW[ ]	/* 1 value pushed */
4 
SRP0[ ]	/* SetRefPoint0 */
PUSHW[ ]	/* 1 value pushed */
17 
MDRP[10000]	/* MoveDirectRelPt */
PUSHW[ ]	/* 1 value pushed */
17 
MDAP[1]	/* MoveDirectAbsPt */
PUSHW[ ]	/* 1 value pushed */
3 
SRP0[ ]	/* SetRefPoint0 */
PUSHW[ ]	/* 1 value pushed */
24 
MDRP[10000]	/* MoveDirectRelPt */
PUSHW[ ]	/* 1 value pushed */
24 
MDAP[1]	/* MoveDirectAbsPt */
IUP[0]	/* InterpolateUntPts */
IUP[1]	/* InterpolateUntPts */";
};
width = 345;
}
);
note = asterisk;
unicode = 42;
},
{
glyphname = plus;
layers = (
{
layerId = m01;
shapes = (
{
closed = 1;
nodes = (
(458,655,ls),
(458,677,o),
(442,715,o),
(413,744,o),
(375,761,o),
(353,761,qs),
(331,761,o),
(292,744,o),
(264,715,o),
(247,677,o),
(247,655,qs),
(247,517,l),
(4,517,l),
(4,307,l),
(247,307,l),
(247,63,l),
(458,63,l),
(458,307,l),
(596,307,ls),
(618,307,o),
(656,324,o),
(685,352,o),
(701,390,o),
(701,412,qs),
(701,434,o),
(685,472,o),
(656,501,o),
(618,517,o),
(596,517,qs),
(458,517,l)
);
}
);
userData = {
assembly = "PUSHW[ ]	/* 1 value pushed */
0 
CALL[ ]	/* CallFunction */
SVTCA[0]	/* SetFreedomAndProjectionVectorToAxis */
PUSHW[ ]	/* 3 values pushed */
0 10 3 
CALL[ ]	/* CallFunction */
PUSHW[ ]	/* 1 value pushed */
10 
SRP0[ ]	/* SetRefPoint0 */
PUSHW[ ]	/* 1 value pushed */
14 
MDRP[10000]	/* MoveDirectRelPt */
PUSHW[ ]	/* 1 value pushed */
0 
SRP0[ ]	/* SetRefPoint0 */
PUSHW[ ]	/* 1 value pushed */
16 
MDRP[10000]	/* MoveDirectRelPt */
SVTCA[1]	/* SetFreedomAndProjectionVectorToAxis */
PUSHW[ ]	/* 3 values pushed */
12 13 3 
CALL[ ]	/* CallFunction */
PUSHW[ ]	/* 1 value pushed */
13 
SRP0[ ]	/* SetRefPoint0 */
PUSHW[ ]	/* 1 value pushed */
17 
MDRP[10000]	/* MoveDirectRelPt */
PUSHW[ ]	/* 1 value pushed */
12 
SRP0[ ]	/* SetRefPoint0 */
PUSHW[ ]	/* 1 value pushed */
28 
MDRP[10000]	/* MoveDirectRelPt */
IUP[0]	/* InterpolateUntPts */
IUP[1]	/* InterpolateUntPts */";
};
width = 727;
}
);
note = plus;
unicode = 43;
},
{
glyphname = comma;
layers = (
{
layerId = m01;
shapes = (
{
closed = 1;
nodes = (
(195,177,o),
(163,194,o),
(128,203,o),
(113,203,qs),
(98,203,o),
(63,195,o),
(33,177,o),
(13,150,o),
(13,132,qs),
(13,-2,l),
(83,-2,l),
(83,-103,l),
(216,-103,l),
(216,132,ls),
(216,150,o)
);
}
);
userData = {
assembly = "PUSHW[ ]	/* 1 value pushed */
0 
CALL[ ]	/* CallFunction */
SVTCA[0]	/* SetFreedomAndProjectionVectorToAxis */
PUSHW[ ]	/* 1 value pushed */
0 
RCVT[ ]	/* ReadCVT */
IF[ ]	/* If */
PUSHW[ ]	/* 1 value pushed */
3 
MDAP[1]	/* MoveDirectAbsPt */
ELSE[ ]	/* Else */
PUSHW[ ]	/* 2 values pushed */
3 5 
MIAP[0]	/* MoveIndirectAbsPt */
EIF[ ]	/* EndIf */
PUSHW[ ]	/* 1 value pushed */
10 
MDRP[11100]	/* MoveDirectRelPt */
NPUSHW[ ]	/* 27 values pushed */
7 10 23 10 39 10 55 10 71 10 87 10 103 10 119 10 135 10 151 10 167 10 183 10 199 10 13 
DELTAP1[ ]	/* DeltaExceptionP1 */
NPUSHW[ ]	/* 5 values pushed */
214 10 230 10 2 
DELTAP1[ ]	/* DeltaExceptionP1 */
SVTCA[1]	/* SetFreedomAndProjectionVectorToAxis */
PUSHW[ ]	/* 3 values pushed */
1 2 3 
CALL[ ]	/* CallFunction */
IUP[0]	/* InterpolateUntPts */
IUP[1]	/* InterpolateUntPts */";
};
width = 229;
}
);
note = comma;
unicode = 44;
},
{
glyphname = hyphen;
layers = (
{
layerId = m01;
shapes = (
{
closed = 1;
nodes = (
(14,300,l),
(606,300,ls),
(628,300,o),
(666,317,o),
(695,345,o),
(712,383,o),
(712,405,qs),
(712,427,o),
(695,466,o),
(666,494,o),
(628,511,o),
(606,511,qs),
(14,511,l)
);
},
{
closed = 1;
nodes = (
(712,405,l),
(712,406,l)
);
}
);
userData = {
assembly = "PUSHW[ ]	/* 1 value pushed */
0 
CALL[ ]	/* CallFunction */
SVTCA[0]	/* SetFreedomAndProjectionVectorToAxis */
PUSHW[ ]	/* 3 values pushed */
0 10 3 
CALL[ ]	/* CallFunction */
IUP[0]	/* InterpolateUntPts */
IUP[1]	/* InterpolateUntPts */";
};
width = 722;
}
);
note = hyphen;
unicode = 45;
},
{
glyphname = period;
layers = (
{
layerId = m01;
shapes = (
{
closed = 1;
nodes = (
(113,204,qs),
(97,204,o),
(62,196,o),
(32,179,o),
(13,152,o),
(13,133,qs),
(13,0,l),
(216,0,l),
(216,133,ls),
(216,161,o),
(186,183,qs),
(155,204,o)
);
}
);
userData = {
assembly = "PUSHW[ ]	/* 1 value pushed */
0 
CALL[ ]	/* CallFunction */
SVTCA[0]	/* SetFreedomAndProjectionVectorToAxis */
PUSHW[ ]	/* 1 value pushed */
0 
RCVT[ ]	/* ReadCVT */
IF[ ]	/* If */
PUSHW[ ]	/* 1 value pushed */
3 
MDAP[1]	/* MoveDirectAbsPt */
ELSE[ ]	/* Else */
PUSHW[ ]	/* 2 values pushed */
3 5 
MIAP[0]	/* MoveIndirectAbsPt */
EIF[ ]	/* EndIf */
PUSHW[ ]	/* 1 value pushed */
10 
MDRP[11100]	/* MoveDirectRelPt */
NPUSHW[ ]	/* 27 values pushed */
7 10 23 10 39 10 55 10 71 10 87 10 103 10 119 10 135 10 151 10 167 10 183 10 199 10 13 
DELTAP1[ ]	/* DeltaExceptionP1 */
NPUSHW[ ]	/* 5 values pushed */
214 10 230 10 2 
DELTAP1[ ]	/* DeltaExceptionP1 */
SVTCA[1]	/* SetFreedomAndProjectionVectorToAxis */
PUSHW[ ]	/* 3 values pushed */
3 4 3 
CALL[ ]	/* CallFunction */
IUP[0]	/* InterpolateUntPts */
IUP[1]	/* InterpolateUntPts */";
};
width = 229;
}
);
note = period;
unicode = 46;
},
{
glyphname = slash;
layers = (
{
layerId = m01;
shapes = (
{
closed = 1;
nodes = (
(346,706,o),
(332,706,qs),
(297,706,o),
(240,664,o),
(230,629,qs),
(50,0,l),
(274,2,l),
(432,573,ls),
(438,594,o),
(432,635,o),
(413,670,o),
(380,696,o),
(359,702,q),
(360,702,l),
(358,703,l)
);
}
);
userData = {
assembly = "PUSHW[ ]	/* 1 value pushed */
0 
CALL[ ]	/* CallFunction */
SVTCA[0]	/* SetFreedomAndProjectionVectorToAxis */
PUSHW[ ]	/* 1 value pushed */
0 
RCVT[ ]	/* ReadCVT */
IF[ ]	/* If */
PUSHW[ ]	/* 1 value pushed */
0 
MDAP[1]	/* MoveDirectAbsPt */
ELSE[ ]	/* Else */
PUSHW[ ]	/* 2 values pushed */
0 7 
MIAP[0]	/* MoveIndirectAbsPt */
EIF[ ]	/* EndIf */
PUSHW[ ]	/* 1 value pushed */
0 
RCVT[ ]	/* ReadCVT */
IF[ ]	/* If */
PUSHW[ ]	/* 1 value pushed */
12 
MDAP[1]	/* MoveDirectAbsPt */
ELSE[ ]	/* Else */
PUSHW[ ]	/* 2 values pushed */
12 7 
MIAP[0]	/* MoveIndirectAbsPt */
EIF[ ]	/* EndIf */
PUSHW[ ]	/* 1 value pushed */
0 
RCVT[ ]	/* ReadCVT */
IF[ ]	/* If */
PUSHW[ ]	/* 1 value pushed */
8 
MDAP[1]	/* MoveDirectAbsPt */
ELSE[ ]	/* Else */
PUSHW[ ]	/* 2 values pushed */
8 5 
MIAP[0]	/* MoveIndirectAbsPt */
EIF[ ]	/* EndIf */
IUP[0]	/* InterpolateUntPts */
IUP[1]	/* InterpolateUntPts */";
};
width = 486;
}
);
note = slash;
unicode = 47;
},
{
glyphname = zero;
layers = (
{
layerId = m01;
shapes = (
{
closed = 1;
nodes = (
(692,562,o),
(589,657,o),
(454,711,o),
(379,711,qs),
(305,711,o),
(170,657,o),
(67,561,o),
(6,431,o),
(6,355,qs),
(6,279,o),
(67,148,o),
(170,54,o),
(305,0,o),
(379,0,qs),
(454,0,o),
(589,54,o),
(692,148,o),
(753,279,o),
(753,355,qs),
(753,432,o)
);
},
{
closed = 1;
nodes = (
(349,368,ls),
(349,381,o),
(358,388,q),
(365,396,o),
(379,396,qs),
(391,396,o),
(401,388,qs),
(410,379,o),
(410,368,qs),
(410,314,l),
(349,314,l)
);
}
);
userData = {
assembly = "PUSHW[ ]	/* 1 value pushed */
0 
CALL[ ]	/* CallFunction */
SVTCA[0]	/* SetFreedomAndProjectionVectorToAxis */
PUSHW[ ]	/* 1 value pushed */
0 
RCVT[ ]	/* ReadCVT */
IF[ ]	/* If */
PUSHW[ ]	/* 1 value pushed */
5 
MDAP[1]	/* MoveDirectAbsPt */
ELSE[ ]	/* Else */
PUSHW[ ]	/* 2 values pushed */
5 5 
MIAP[0]	/* MoveIndirectAbsPt */
EIF[ ]	/* EndIf */
PUSHW[ ]	/* 1 value pushed */
20 
MDRP[11100]	/* MoveDirectRelPt */
SVTCA[1]	/* SetFreedomAndProjectionVectorToAxis */
PUSHW[ ]	/* 3 values pushed */
29 10 3 
CALL[ ]	/* CallFunction */
PUSHW[ ]	/* 3 values pushed */
0 21 3 
CALL[ ]	/* CallFunction */
IUP[0]	/* InterpolateUntPts */
IUP[1]	/* InterpolateUntPts */";
};
width = 759;
}
);
note = zero;
unicode = 48;
},
{
glyphname = one;
layers = (
{
layerId = m01;
shapes = (
{
closed = 1;
nodes = (
(109,680,o),
(55,628,o),
(23,559,o),
(23,519,qs),
(23,0,l),
(424,0,l),
(424,519,ls),
(424,559,o),
(393,628,o),
(339,680,o),
(266,711,o),
(224,711,qs),
(182,711,o)
);
}
);
userData = {
assembly = "PUSHW[ ]	/* 1 value pushed */
0 
CALL[ ]	/* CallFunction */
SVTCA[0]	/* SetFreedomAndProjectionVectorToAxis */
PUSHW[ ]	/* 1 value pushed */
0 
RCVT[ ]	/* ReadCVT */
IF[ ]	/* If */
PUSHW[ ]	/* 1 value pushed */
6 
MDAP[1]	/* MoveDirectAbsPt */
ELSE[ ]	/* Else */
PUSHW[ ]	/* 2 values pushed */
6 5 
MIAP[0]	/* MoveIndirectAbsPt */
EIF[ ]	/* EndIf */
IUP[0]	/* InterpolateUntPts */
IUP[1]	/* InterpolateUntPts */";
};
width = 448;
}
);
note = one;
unicode = 49;
},
{
glyphname = two;
layers = (
{
layerId = m01;
shapes = (
{
closed = 1;
nodes = (
(765,356,ls),
(765,430,o),
(706,559,o),
(605,655,o),
(469,711,o),
(391,711,qs),
(333,711,o),
(226,679,o),
(136,620,o),
(67,539,o),
(46,490,q),
(271,490,ls),
(281,490,o),
(291,482,qs),
(300,473,o),
(300,461,qs),
(300,449,o),
(283,432,o),
(271,432,qs),
(27,432,l),
(18,396,o),
(18,356,qs),
(18,0,l),
(765,0,l),
(765,228,l),
(513,228,ls),
(500,228,o),
(483,244,o),
(483,257,qs),
(483,271,o),
(500,285,o),
(513,285,qs),
(765,285,l)
);
}
);
userData = {
assembly = "PUSHW[ ]	/* 1 value pushed */
0 
CALL[ ]	/* CallFunction */
SVTCA[0]	/* SetFreedomAndProjectionVectorToAxis */
PUSHW[ ]	/* 1 value pushed */
0 
RCVT[ ]	/* ReadCVT */
IF[ ]	/* If */
PUSHW[ ]	/* 1 value pushed */
8 
MDAP[1]	/* MoveDirectAbsPt */
ELSE[ ]	/* Else */
PUSHW[ ]	/* 2 values pushed */
8 5 
MIAP[0]	/* MoveIndirectAbsPt */
EIF[ ]	/* EndIf */
PUSHW[ ]	/* 3 values pushed */
26 20 3 
CALL[ ]	/* CallFunction */
PUSHW[ ]	/* 3 values pushed */
13 0 3 
CALL[ ]	/* CallFunction */
PUSHW[ ]	/* 1 value pushed */
8 
SRP0[ ]	/* SetRefPoint0 */
PUSHW[ ]	/* 1 value pushed */
6 
MDRP[11100]	/* MoveDirectRelPt */
IUP[0]	/* InterpolateUntPts */
IUP[1]	/* InterpolateUntPts */";
};
width = 783;
}
);
note = two;
unicode = 50;
},
{
glyphname = three;
layers = (
{
layerId = m01;
shapes = (
{
closed = 1;
nodes = (
(24,507,l),
(277,507,ls),
(288,507,o),
(298,499,qs),
(307,490,o),
(307,478,qs),
(307,466,o),
(298,458,qs),
(289,449,o),
(277,449,qs),
(24,449,l),
(24,263,l),
(277,263,ls),
(288,263,o),
(298,255,qs),
(307,246,o),
(307,235,qs),
(307,223,o),
(298,214,qs),
(288,205,o),
(277,205,qs),
(24,205,l),
(24,0,l),
(398,0,ls),
(475,0,o),
(611,56,o),
(713,152,o),
(772,282,o),
(772,356,qs),
(772,430,o),
(713,560,o),
(611,656,o),
(475,712,o),
(398,712,qs),
(24,712,l)
);
}
);
userData = {
assembly = "PUSHW[ ]	/* 1 value pushed */
0 
CALL[ ]	/* CallFunction */
SVTCA[0]	/* SetFreedomAndProjectionVectorToAxis */
PUSHW[ ]	/* 1 value pushed */
0 
RCVT[ ]	/* ReadCVT */
IF[ ]	/* If */
PUSHW[ ]	/* 1 value pushed */
10 
MDAP[1]	/* MoveDirectAbsPt */
ELSE[ ]	/* Else */
PUSHW[ ]	/* 2 values pushed */
10 5 
MIAP[0]	/* MoveIndirectAbsPt */
EIF[ ]	/* EndIf */
PUSHW[ ]	/* 3 values pushed */
0 32 3 
CALL[ ]	/* CallFunction */
PUSHW[ ]	/* 3 values pushed */
24 21 3 
CALL[ ]	/* CallFunction */
PUSHW[ ]	/* 1 value pushed */
10 
SRP0[ ]	/* SetRefPoint0 */
PUSHW[ ]	/* 1 value pushed */
12 
MDRP[11100]	/* MoveDirectRelPt */
IUP[0]	/* InterpolateUntPts */
IUP[1]	/* InterpolateUntPts */";
};
width = 778;
}
);
note = three;
unicode = 51;
},
{
glyphname = four;
layers = (
{
layerId = m01;
shapes = (
{
closed = 1;
nodes = (
(303,711,o),
(167,655,o),
(66,559,o),
(7,429,o),
(7,355,qs),
(7,310,o),
(19,268,q),
(411,268,l),
(410,268,l),
(411,268,l),
(411,7,ls),
(411,4,o),
(409,0,q),
(754,0,l),
(754,711,l),
(380,711,ls)
);
},
{
closed = 1;
nodes = (
(350,442,l),
(350,496,ls),
(350,509,o),
(369,524,o),
(381,524,qs),
(395,524,o),
(402,516,q),
(411,509,o),
(411,496,qs),
(411,442,l)
);
},
{
closed = 1;
nodes = (
(351,0,l),
(351,2,o),
(350,5,o),
(350,7,qs),
(350,228,l),
(8,0,l)
);
}
);
userData = {
assembly = "PUSHW[ ]	/* 1 value pushed */
0 
CALL[ ]	/* CallFunction */
SVTCA[0]	/* SetFreedomAndProjectionVectorToAxis */
PUSHW[ ]	/* 1 value pushed */
0 
RCVT[ ]	/* ReadCVT */
IF[ ]	/* If */
PUSHW[ ]	/* 1 value pushed */
1 
MDAP[1]	/* MoveDirectAbsPt */
ELSE[ ]	/* Else */
PUSHW[ ]	/* 2 values pushed */
1 5 
MIAP[0]	/* MoveIndirectAbsPt */
EIF[ ]	/* EndIf */
PUSHW[ ]	/* 1 value pushed */
0 
RCVT[ ]	/* ReadCVT */
IF[ ]	/* If */
PUSHW[ ]	/* 1 value pushed */
4 
MDAP[1]	/* MoveDirectAbsPt */
ELSE[ ]	/* Else */
PUSHW[ ]	/* 2 values pushed */
4 5 
MIAP[0]	/* MoveIndirectAbsPt */
EIF[ ]	/* EndIf */
PUSHW[ ]	/* 1 value pushed */
0 
RCVT[ ]	/* ReadCVT */
IF[ ]	/* If */
PUSHW[ ]	/* 1 value pushed */
27 
MDAP[1]	/* MoveDirectAbsPt */
ELSE[ ]	/* Else */
PUSHW[ ]	/* 2 values pushed */
27 5 
MIAP[0]	/* MoveIndirectAbsPt */
EIF[ ]	/* EndIf */
PUSHW[ ]	/* 1 value pushed */
0 
RCVT[ ]	/* ReadCVT */
IF[ ]	/* If */
PUSHW[ ]	/* 1 value pushed */
30 
MDAP[1]	/* MoveDirectAbsPt */
ELSE[ ]	/* Else */
PUSHW[ ]	/* 2 values pushed */
30 5 
MIAP[0]	/* MoveIndirectAbsPt */
EIF[ ]	/* EndIf */
PUSHW[ ]	/* 3 values pushed */
15 20 3 
CALL[ ]	/* CallFunction */
PUSHW[ ]	/* 3 values pushed */
25 5 3 
CALL[ ]	/* CallFunction */
PUSHW[ ]	/* 1 value pushed */
5 
SRP0[ ]	/* SetRefPoint0 */
PUSHW[ ]	/* 1 value pushed */
7 
MDRP[10000]	/* MoveDirectRelPt */
SVTCA[1]	/* SetFreedomAndProjectionVectorToAxis */
PUSHW[ ]	/* 1 value pushed */
32 
MDAP[1]	/* MoveDirectAbsPt */
PUSHW[ ]	/* 1 value pushed */
4 
MDAP[1]	/* MoveDirectAbsPt */
PUSHW[ ]	/* 1 value pushed */
1 
MDRP[11100]	/* MoveDirectRelPt */
PUSHW[ ]	/* 1 value pushed */
4 
SRP0[ ]	/* SetRefPoint0 */
PUSHW[ ]	/* 1 value pushed */
6 
MDRP[10000]	/* MoveDirectRelPt */
PUSHW[ ]	/* 1 value pushed */
6 
MDAP[1]	/* MoveDirectAbsPt */
PUSHW[ ]	/* 1 value pushed */
32 
SRP0[ ]	/* SetRefPoint0 */
PUSHW[ ]	/* 1 value pushed */
10 
MDRP[10000]	/* MoveDirectRelPt */
PUSHW[ ]	/* 1 value pushed */
10 
MDAP[1]	/* MoveDirectAbsPt */
PUSHW[ ]	/* 1 value pushed */
4 
SRP0[ ]	/* SetRefPoint0 */
PUSHW[ ]	/* 1 value pushed */
16 
MDRP[10000]	/* MoveDirectRelPt */
PUSHW[ ]	/* 1 value pushed */
10 
SRP0[ ]	/* SetRefPoint0 */
PUSHW[ ]	/* 1 value pushed */
24 
MDRP[11100]	/* MoveDirectRelPt */
PUSHW[ ]	/* 1 value pushed */
26 
MDRP[10000]	/* MoveDirectRelPt */
PUSHW[ ]	/* 1 value pushed */
24 
SRP0[ ]	/* SetRefPoint0 */
PUSHW[ ]	/* 1 value pushed */
30 
MDRP[10000]	/* MoveDirectRelPt */
PUSHW[ ]	/* 1 value pushed */
30 
MDAP[1]	/* MoveDirectAbsPt */
PUSHW[ ]	/* 1 value pushed */
10 
SRP0[ ]	/* SetRefPoint0 */
PUSHW[ ]	/* 1 value pushed */
31 
MDRP[10000]	/* MoveDirectRelPt */
PUSHW[ ]	/* 1 value pushed */
31 
MDAP[1]	/* MoveDirectAbsPt */
IUP[0]	/* InterpolateUntPts */
IUP[1]	/* InterpolateUntPts */";
};
width = 779;
}
);
note = four;
unicode = 52;
},
{
glyphname = five;
layers = (
{
layerId = m01;
shapes = (
{
closed = 1;
nodes = (
(765,711,l),
(18,711,l),
(18,356,ls),
(18,317,o),
(27,279,q),
(271,279,ls),
(282,279,o),
(292,271,q),
(300,261,o),
(300,250,qs),
(300,238,o),
(281,221,o),
(270,221,qs),
(46,221,l),
(67,172,o),
(136,91,o),
(226,33,o),
(333,0,o),
(391,0,qs),
(469,0,o),
(605,56,o),
(706,152,o),
(765,282,o),
(765,356,qs),
(765,426,l),
(513,426,ls),
(501,426,o),
(491,434,qs),
(483,442,o),
(483,454,qs),
(483,468,o),
(492,475,qs),
(501,484,o),
(513,484,qs),
(765,484,l)
);
}
);
userData = {
assembly = "PUSHW[ ]	/* 1 value pushed */
0 
CALL[ ]	/* CallFunction */
SVTCA[0]	/* SetFreedomAndProjectionVectorToAxis */
PUSHW[ ]	/* 1 value pushed */
0 
RCVT[ ]	/* ReadCVT */
IF[ ]	/* If */
PUSHW[ ]	/* 1 value pushed */
15 
MDAP[1]	/* MoveDirectAbsPt */
ELSE[ ]	/* Else */
PUSHW[ ]	/* 2 values pushed */
15 5 
MIAP[0]	/* MoveIndirectAbsPt */
EIF[ ]	/* EndIf */
PUSHW[ ]	/* 3 values pushed */
33 34 3 
CALL[ ]	/* CallFunction */
PUSHW[ ]	/* 3 values pushed */
8 28 3 
CALL[ ]	/* CallFunction */
PUSHW[ ]	/* 1 value pushed */
15 
SRP0[ ]	/* SetRefPoint0 */
PUSHW[ ]	/* 1 value pushed */
20 
MDRP[11100]	/* MoveDirectRelPt */
IUP[0]	/* InterpolateUntPts */
IUP[1]	/* InterpolateUntPts */";
};
width = 782;
}
);
note = five;
unicode = 53;
},
{
glyphname = six;
layers = (
{
layerId = m01;
shapes = (
{
closed = 1;
nodes = (
(368,711,l),
(25,711,l),
(25,0,l),
(398,0,ls),
(476,0,o),
(612,56,o),
(713,152,o),
(772,282,o),
(772,356,qs),
(772,379,o),
(765,422,o),
(760,443,q),
(368,443,l)
);
},
{
closed = 1;
nodes = (
(420,195,qs),
(410,187,o),
(398,187,qs),
(384,187,o),
(377,195,qs),
(368,203,o),
(368,215,qs),
(368,269,l),
(429,269,l),
(429,215,ls),
(429,204,o)
);
}
);
userData = {
assembly = "PUSHW[ ]	/* 1 value pushed */
0 
CALL[ ]	/* CallFunction */
SVTCA[0]	/* SetFreedomAndProjectionVectorToAxis */
PUSHW[ ]	/* 1 value pushed */
0 
RCVT[ ]	/* ReadCVT */
IF[ ]	/* If */
PUSHW[ ]	/* 1 value pushed */
8 
MDAP[1]	/* MoveDirectAbsPt */
ELSE[ ]	/* Else */
PUSHW[ ]	/* 2 values pushed */
8 5 
MIAP[0]	/* MoveIndirectAbsPt */
EIF[ ]	/* EndIf */
PUSHW[ ]	/* 3 values pushed */
12 15 3 
CALL[ ]	/* CallFunction */
PUSHW[ ]	/* 1 value pushed */
8 
SRP0[ ]	/* SetRefPoint0 */
PUSHW[ ]	/* 1 value pushed */
20 
MDRP[11100]	/* MoveDirectRelPt */
NPUSHW[ ]	/* 27 values pushed */
7 20 23 20 39 20 55 20 71 20 87 20 103 20 119 20 135 20 151 20 167 20 183 20 199 20 13 
DELTAP1[ ]	/* DeltaExceptionP1 */
NPUSHW[ ]	/* 5 values pushed */
214 20 230 20 2 
DELTAP1[ ]	/* DeltaExceptionP1 */
SVTCA[1]	/* SetFreedomAndProjectionVectorToAxis */
PUSHW[ ]	/* 3 values pushed */
16 9 3 
CALL[ ]	/* CallFunction */
PUSHW[ ]	/* 1 value pushed */
16 
SRP0[ ]	/* SetRefPoint0 */
PUSHW[ ]	/* 1 value pushed */
11 
MDRP[10000]	/* MoveDirectRelPt */
IUP[0]	/* InterpolateUntPts */
IUP[1]	/* InterpolateUntPts */";
};
width = 822;
}
);
note = six;
unicode = 54;
},
{
glyphname = seven;
layers = (
{
layerId = m01;
shapes = (
{
closed = 1;
nodes = (
(321,711,o),
(185,655,o),
(84,559,o),
(25,429,o),
(25,355,qs),
(25,313,o),
(36,269,q),
(368,269,l),
(368,496,ls),
(368,508,o),
(387,525,o),
(399,525,qs),
(410,525,o),
(420,517,qs),
(428,509,o),
(428,496,qs),
(428,269,l),
(429,269,l),
(429,0,l),
(772,0,l),
(772,711,l),
(398,711,ls)
);
}
);
userData = {
assembly = "PUSHW[ ]	/* 1 value pushed */
0 
CALL[ ]	/* CallFunction */
SVTCA[0]	/* SetFreedomAndProjectionVectorToAxis */
PUSHW[ ]	/* 1 value pushed */
0 
RCVT[ ]	/* ReadCVT */
IF[ ]	/* If */
PUSHW[ ]	/* 1 value pushed */
1 
MDAP[1]	/* MoveDirectAbsPt */
ELSE[ ]	/* Else */
PUSHW[ ]	/* 2 values pushed */
1 5 
MIAP[0]	/* MoveIndirectAbsPt */
EIF[ ]	/* EndIf */
PUSHW[ ]	/* 3 values pushed */
21 9 3 
CALL[ ]	/* CallFunction */
SVTCA[1]	/* SetFreedomAndProjectionVectorToAxis */
PUSHW[ ]	/* 1 value pushed */
22 
MDAP[1]	/* MoveDirectAbsPt */
PUSHW[ ]	/* 1 value pushed */
2 
MDAP[1]	/* MoveDirectAbsPt */
PUSHW[ ]	/* 1 value pushed */
1 
MDRP[11100]	/* MoveDirectRelPt */
PUSHW[ ]	/* 1 value pushed */
2 
SRP0[ ]	/* SetRefPoint0 */
PUSHW[ ]	/* 1 value pushed */
4 
MDRP[10000]	/* MoveDirectRelPt */
PUSHW[ ]	/* 1 value pushed */
4 
MDAP[1]	/* MoveDirectAbsPt */
PUSHW[ ]	/* 1 value pushed */
22 
SRP0[ ]	/* SetRefPoint0 */
PUSHW[ ]	/* 1 value pushed */
16 
MDRP[10000]	/* MoveDirectRelPt */
PUSHW[ ]	/* 1 value pushed */
16 
MDAP[1]	/* MoveDirectAbsPt */
PUSHW[ ]	/* 1 value pushed */
13 
MDRP[11100]	/* MoveDirectRelPt */
IUP[0]	/* InterpolateUntPts */
IUP[1]	/* InterpolateUntPts */";
};
width = 797;
}
);
note = seven;
unicode = 55;
},
{
glyphname = eight;
layers = (
{
layerId = m01;
shapes = (
{
closed = 1;
nodes = (
(179,655,o),
(78,559,o),
(19,429,o),
(19,355,qs),
(19,0,l),
(766,0,l),
(766,355,ls),
(766,429,o),
(707,559,o),
(606,655,o),
(470,711,o),
(392,711,qs),
(315,711,o)
);
},
{
closed = 1;
nodes = (
(371,463,q),
(379,472,o),
(392,472,qs),
(405,472,o),
(423,455,o),
(423,442,qs),
(423,386,l),
(362,386,l),
(362,442,ls),
(362,456,o)
);
},
{
closed = 1;
nodes = (
(371,197,ls),
(371,208,o),
(379,218,qs),
(387,226,o),
(401,226,qs),
(413,226,o),
(432,209,o),
(432,197,qs),
(432,140,l),
(371,140,l)
);
}
);
userData = {
assembly = "PUSHW[ ]	/* 1 value pushed */
0 
CALL[ ]	/* CallFunction */
SVTCA[0]	/* SetFreedomAndProjectionVectorToAxis */
PUSHW[ ]	/* 1 value pushed */
0 
RCVT[ ]	/* ReadCVT */
IF[ ]	/* If */
PUSHW[ ]	/* 1 value pushed */
6 
MDAP[1]	/* MoveDirectAbsPt */
ELSE[ ]	/* Else */
PUSHW[ ]	/* 2 values pushed */
6 5 
MIAP[0]	/* MoveIndirectAbsPt */
EIF[ ]	/* EndIf */
PUSHW[ ]	/* 3 values pushed */
15 27 3 
CALL[ ]	/* CallFunction */
PUSHW[ ]	/* 3 values pushed */
0 19 3 
CALL[ ]	/* CallFunction */
PUSHW[ ]	/* 1 value pushed */
6 
SRP0[ ]	/* SetRefPoint0 */
PUSHW[ ]	/* 1 value pushed */
23 
MDRP[11100]	/* MoveDirectRelPt */
SVTCA[1]	/* SetFreedomAndProjectionVectorToAxis */
PUSHW[ ]	/* 3 values pushed */
14 8 3 
CALL[ ]	/* CallFunction */
PUSHW[ ]	/* 3 values pushed */
6 23 3 
CALL[ ]	/* CallFunction */
IUP[0]	/* InterpolateUntPts */
IUP[1]	/* InterpolateUntPts */";
};
width = 785;
}
);
note = eight;
unicode = 56;
},
{
glyphname = nine;
layers = (
{
layerId = m01;
shapes = (
{
closed = 1;
nodes = (
(321,711,o),
(185,655,o),
(84,559,o),
(25,430,o),
(25,356,qs),
(25,311,o),
(37,269,q),
(429,269,l),
(429,0,l),
(772,0,l),
(772,711,l),
(398,711,ls)
);
},
{
closed = 1;
nodes = (
(368,443,l),
(368,496,ls),
(368,508,o),
(387,525,o),
(399,525,qs),
(410,525,o),
(420,517,qs),
(429,508,o),
(429,496,qs),
(429,443,l)
);
}
);
userData = {
assembly = "PUSHW[ ]	/* 1 value pushed */
0 
CALL[ ]	/* CallFunction */
SVTCA[0]	/* SetFreedomAndProjectionVectorToAxis */
PUSHW[ ]	/* 1 value pushed */
0 
RCVT[ ]	/* ReadCVT */
IF[ ]	/* If */
PUSHW[ ]	/* 1 value pushed */
1 
MDAP[1]	/* MoveDirectAbsPt */
ELSE[ ]	/* Else */
PUSHW[ ]	/* 2 values pushed */
1 5 
MIAP[0]	/* MoveIndirectAbsPt */
EIF[ ]	/* EndIf */
PUSHW[ ]	/* 3 values pushed */
11 16 3 
CALL[ ]	/* CallFunction */
PUSHW[ ]	/* 3 values pushed */
21 3 3 
CALL[ ]	/* CallFunction */
SVTCA[1]	/* SetFreedomAndProjectionVectorToAxis */
PUSHW[ ]	/* 1 value pushed */
22 
MDAP[1]	/* MoveDirectAbsPt */
PUSHW[ ]	/* 1 value pushed */
2 
MDAP[1]	/* MoveDirectAbsPt */
PUSHW[ ]	/* 1 value pushed */
1 
MDRP[11100]	/* MoveDirectRelPt */
PUSHW[ ]	/* 1 value pushed */
22 
SRP0[ ]	/* SetRefPoint0 */
PUSHW[ ]	/* 1 value pushed */
6 
MDRP[10000]	/* MoveDirectRelPt */
PUSHW[ ]	/* 1 value pushed */
6 
MDAP[1]	/* MoveDirectAbsPt */
PUSHW[ ]	/* 1 value pushed */
2 
SRP0[ ]	/* SetRefPoint0 */
PUSHW[ ]	/* 1 value pushed */
12 
MDRP[10000]	/* MoveDirectRelPt */
PUSHW[ ]	/* 1 value pushed */
6 
SRP0[ ]	/* SetRefPoint0 */
PUSHW[ ]	/* 1 value pushed */
20 
MDRP[11100]	/* MoveDirectRelPt */
IUP[0]	/* InterpolateUntPts */
IUP[1]	/* InterpolateUntPts */";
};
width = 797;
}
);
note = nine;
unicode = 57;
},
{
glyphname = colon;
layers = (
{
layerId = m01;
shapes = (
{
closed = 1;
nodes = (
(200,634,o),
(169,651,o),
(133,660,o),
(118,660,qs),
(102,660,o),
(67,652,o),
(37,635,o),
(18,608,o),
(18,589,qs),
(18,455,l),
(221,455,l),
(221,589,ls),
(221,607,o)
);
},
{
closed = 1;
nodes = (
(118,351,qs),
(102,351,o),
(67,343,o),
(37,326,o),
(18,299,o),
(18,280,qs),
(18,147,l),
(221,147,l),
(221,280,ls),
(221,308,o),
(191,330,qs),
(160,351,o)
);
}
);
userData = {
assembly = "PUSHW[ ]	/* 1 value pushed */
0 
CALL[ ]	/* CallFunction */
SVTCA[0]	/* SetFreedomAndProjectionVectorToAxis */
PUSHW[ ]	/* 3 values pushed */
23 17 3 
CALL[ ]	/* CallFunction */
PUSHW[ ]	/* 3 values pushed */
8 2 3 
CALL[ ]	/* CallFunction */
SVTCA[1]	/* SetFreedomAndProjectionVectorToAxis */
PUSHW[ ]	/* 3 values pushed */
1 2 3 
CALL[ ]	/* CallFunction */
PUSHW[ ]	/* 1 value pushed */
1 
SRP0[ ]	/* SetRefPoint0 */
PUSHW[ ]	/* 1 value pushed */
15 
MDRP[10000]	/* MoveDirectRelPt */
PUSHW[ ]	/* 1 value pushed */
2 
SRP0[ ]	/* SetRefPoint0 */
PUSHW[ ]	/* 1 value pushed */
17 
MDRP[10000]	/* MoveDirectRelPt */
IUP[0]	/* InterpolateUntPts */
IUP[1]	/* InterpolateUntPts */";
};
width = 239;
}
);
note = colon;
unicode = 58;
},
{
glyphname = semicolon;
layers = (
{
layerId = m01;
shapes = (
{
closed = 1;
nodes = (
(200,636,o),
(168,653,o),
(133,662,o),
(118,662,qs),
(103,662,o),
(68,654,o),
(38,636,o),
(18,609,o),
(18,591,qs),
(18,457,l),
(221,457,l),
(221,591,ls),
(221,609,o)
);
},
{
closed = 1;
nodes = (
(118,353,qs),
(102,353,o),
(67,345,o),
(37,328,o),
(18,301,o),
(18,282,qs),
(18,148,l),
(88,148,l),
(88,47,l),
(221,47,l),
(221,282,ls),
(221,310,o),
(191,332,qs),
(160,353,o)
);
}
);
userData = {
assembly = "PUSHW[ ]	/* 1 value pushed */
0 
CALL[ ]	/* CallFunction */
SVTCA[0]	/* SetFreedomAndProjectionVectorToAxis */
PUSHW[ ]	/* 3 values pushed */
25 18 3 
CALL[ ]	/* CallFunction */
PUSHW[ ]	/* 3 values pushed */
8 2 3 
CALL[ ]	/* CallFunction */
SVTCA[1]	/* SetFreedomAndProjectionVectorToAxis */
PUSHW[ ]	/* 3 values pushed */
16 17 3 
CALL[ ]	/* CallFunction */
PUSHW[ ]	/* 1 value pushed */
16 
SRP0[ ]	/* SetRefPoint0 */
PUSHW[ ]	/* 1 value pushed */
0 
MDRP[10000]	/* MoveDirectRelPt */
IUP[0]	/* InterpolateUntPts */
IUP[1]	/* InterpolateUntPts */";
};
width = 241;
}
);
note = semicolon;
unicode = 59;
},
{
glyphname = less;
layers = (
{
layerId = m01;
shapes = (
{
closed = 1;
nodes = (
(730,473,l),
(735,697,l),
(104,526,ls),
(84,521,o),
(52,497,o),
(31,465,o),
(23,426,o),
(27,406,q),
(26,371,o),
(68,312,o),
(104,302,qs),
(732,120,l),
(730,344,l),
(493,411,l)
);
}
);
userData = {
assembly = "PUSHW[ ]	/* 1 value pushed */
0 
CALL[ ]	/* CallFunction */
SVTCA[0]	/* SetFreedomAndProjectionVectorToAxis */
PUSHW[ ]	/* 3 values pushed */
11 1 3 
CALL[ ]	/* CallFunction */
PUSHW[ ]	/* 3 values pushed */
13 1 11 
SRP1[ ]	/* SetRefPoint1 */
SRP2[ ]	/* SetRefPoint2 */
IP[ ]	/* InterpolatePts */
IUP[0]	/* InterpolateUntPts */
IUP[1]	/* InterpolateUntPts */";
};
width = 755;
}
);
note = less;
unicode = 60;
},
{
glyphname = equal;
layers = (
{
layerId = m01;
shapes = (
{
closed = 1;
nodes = (
(19,447,l),
(611,447,ls),
(633,447,o),
(671,464,o),
(700,492,o),
(717,530,o),
(717,552,qs),
(717,574,o),
(700,612,o),
(671,641,o),
(633,657,o),
(611,657,qs),
(19,657,l)
);
},
{
closed = 1;
nodes = (
(19,157,l),
(611,157,ls),
(633,157,o),
(671,174,o),
(700,202,o),
(717,240,o),
(717,262,qs),
(717,284,o),
(700,322,o),
(671,351,o),
(633,367,o),
(611,367,qs),
(19,367,l)
);
}
);
userData = {
assembly = "PUSHW[ ]	/* 1 value pushed */
0 
CALL[ ]	/* CallFunction */
SVTCA[0]	/* SetFreedomAndProjectionVectorToAxis */
PUSHW[ ]	/* 3 values pushed */
13 23 3 
CALL[ ]	/* CallFunction */
PUSHW[ ]	/* 3 values pushed */
0 10 3 
CALL[ ]	/* CallFunction */
IUP[0]	/* InterpolateUntPts */
IUP[1]	/* InterpolateUntPts */";
};
width = 732;
}
);
note = equal;
unicode = 61;
},
{
glyphname = greater;
layers = (
{
layerId = m01;
shapes = (
{
closed = 1;
nodes = (
(686,505,o),
(650,515,qs),
(22,697,l),
(24,473,l),
(261,406,l),
(24,344,l),
(19,120,l),
(650,290,ls),
(670,295,o),
(702,319,o),
(723,352,o),
(731,390,o),
(727,410,q),
(729,446,o)
);
}
);
userData = {
assembly = "PUSHW[ ]	/* 1 value pushed */
0 
CALL[ ]	/* CallFunction */
SVTCA[0]	/* SetFreedomAndProjectionVectorToAxis */
PUSHW[ ]	/* 3 values pushed */
10 6 3 
CALL[ ]	/* CallFunction */
PUSHW[ ]	/* 3 values pushed */
8 6 10 
SRP1[ ]	/* SetRefPoint1 */
SRP2[ ]	/* SetRefPoint2 */
IP[ ]	/* InterpolatePts */
IUP[0]	/* InterpolateUntPts */
IUP[1]	/* InterpolateUntPts */";
};
width = 754;
}
);
note = greater;
unicode = 62;
},
{
glyphname = question;
layers = (
{
layerId = m01;
shapes = (
{
closed = 1;
nodes = (
(403,706,qs),
(279,706,ls),
(231,706,o),
(148,672,o),
(86,612,o),
(50,533,o),
(50,488,qs),
(50,474,o),
(54,448,o),
(57,435,q),
(260,435,l),
(260,574,ls),
(260,582,o),
(266,586,q),
(272,592,o),
(279,592,qs),
(297,592,o),
(297,574,qs),
(297,256,l),
(507,256,l),
(507,600,ls),
(507,621,o),
(492,659,o),
(465,687,o),
(429,704,o),
(408,705,q),
(406,706,o)
);
},
{
closed = 1;
nodes = (
(401,204,qs),
(385,204,o),
(350,196,o),
(320,179,o),
(301,152,o),
(301,133,qs),
(301,0,l),
(504,0,l),
(504,133,ls),
(504,161,o),
(474,183,qs),
(443,204,o)
);
}
);
userData = {
assembly = "PUSHW[ ]	/* 1 value pushed */
0 
CALL[ ]	/* CallFunction */
SVTCA[0]	/* SetFreedomAndProjectionVectorToAxis */
PUSHW[ ]	/* 1 value pushed */
0 
RCVT[ ]	/* ReadCVT */
IF[ ]	/* If */
PUSHW[ ]	/* 1 value pushed */
0 
MDAP[1]	/* MoveDirectAbsPt */
ELSE[ ]	/* Else */
PUSHW[ ]	/* 2 values pushed */
0 7 
MIAP[0]	/* MoveIndirectAbsPt */
EIF[ ]	/* EndIf */
PUSHW[ ]	/* 1 value pushed */
0 
RCVT[ ]	/* ReadCVT */
IF[ ]	/* If */
PUSHW[ ]	/* 1 value pushed */
24 
MDAP[1]	/* MoveDirectAbsPt */
ELSE[ ]	/* Else */
PUSHW[ ]	/* 2 values pushed */
24 7 
MIAP[0]	/* MoveIndirectAbsPt */
EIF[ ]	/* EndIf */
PUSHW[ ]	/* 1 value pushed */
0 
RCVT[ ]	/* ReadCVT */
IF[ ]	/* If */
PUSHW[ ]	/* 1 value pushed */
30 
MDAP[1]	/* MoveDirectAbsPt */
ELSE[ ]	/* Else */
PUSHW[ ]	/* 2 values pushed */
30 5 
MIAP[0]	/* MoveIndirectAbsPt */
EIF[ ]	/* EndIf */
PUSHW[ ]	/* 1 value pushed */
24 
SRP0[ ]	/* SetRefPoint0 */
PUSHW[ ]	/* 1 value pushed */
10 
MDRP[11100]	/* MoveDirectRelPt */
NPUSHW[ ]	/* 5 values pushed */
217 10 233 10 2 
DELTAP1[ ]	/* DeltaExceptionP1 */
NPUSHW[ ]	/* 27 values pushed */
8 10 24 10 40 10 56 10 72 10 88 10 104 10 120 10 136 10 152 10 168 10 184 10 200 10 13 
DELTAP1[ ]	/* DeltaExceptionP1 */
PUSHW[ ]	/* 1 value pushed */
30 
SRP0[ ]	/* SetRefPoint0 */
PUSHW[ ]	/* 1 value pushed */
37 
MDRP[11100]	/* MoveDirectRelPt */
NPUSHW[ ]	/* 27 values pushed */
7 37 23 37 39 37 55 37 71 37 87 37 103 37 119 37 135 37 151 37 167 37 183 37 199 37 13 
DELTAP1[ ]	/* DeltaExceptionP1 */
NPUSHW[ ]	/* 5 values pushed */
214 37 230 37 2 
DELTAP1[ ]	/* DeltaExceptionP1 */
SVTCA[1]	/* SetFreedomAndProjectionVectorToAxis */
PUSHW[ ]	/* 3 values pushed */
15 19 3 
CALL[ ]	/* CallFunction */
PUSHW[ ]	/* 3 values pushed */
6 7 3 
CALL[ ]	/* CallFunction */
PUSHW[ ]	/* 1 value pushed */
6 
SRP0[ ]	/* SetRefPoint0 */
PUSHW[ ]	/* 1 value pushed */
29 
MDRP[10000]	/* MoveDirectRelPt */
PUSHW[ ]	/* 1 value pushed */
29 
MDAP[1]	/* MoveDirectAbsPt */
PUSHW[ ]	/* 1 value pushed */
7 
SRP0[ ]	/* SetRefPoint0 */
PUSHW[ ]	/* 1 value pushed */
31 
MDRP[10000]	/* MoveDirectRelPt */
PUSHW[ ]	/* 1 value pushed */
31 
MDAP[1]	/* MoveDirectAbsPt */
IUP[0]	/* InterpolateUntPts */
IUP[1]	/* InterpolateUntPts */";
};
width = 530;
}
);
note = question;
unicode = 63;
},
{
glyphname = at;
layers = (
{
layerId = m01;
shapes = (
{
closed = 1;
nodes = (
(652,550,o),
(557,645,o),
(429,700,o),
(357,700,qs),
(285,700,o),
(157,645,o),
(62,550,o),
(7,422,o),
(7,350,qs),
(7,277,o),
(62,150,o),
(157,55,o),
(284,0,o),
(357,0,qs),
(430,0,o),
(557,55,o),
(652,150,o),
(707,277,o),
(707,350,qs),
(707,422,o)
);
},
{
closed = 1;
nodes = (
(403,263,o),
(405,292,q),
(403,292,l),
(370,236,o),
(314,236,qs),
(286,236,o),
(245,278,o),
(245,316,qs),
(245,346,o),
(267,400,o),
(307,441,o),
(362,466,o),
(395,466,qs),
(420,466,o),
(453,431,o),
(453,408,qs),
(453,401,o),
(452,397,qs),
(442,338,ls),
(434,302,o),
(444,268,o),
(460,267,qs),
(485,266,o),
(529,328,o),
(529,383,qs),
(529,452,o),
(450,541,o),
(376,541,qs),
(337,541,o),
(268,511,o),
(216,456,o),
(186,378,o),
(186,330,qs),
(186,291,o),
(210,227,o),
(253,183,o),
(313,159,o),
(348,159,qs),
(404,159,o),
(442,181,q),
(442,181,o),
(444,182,q),
(452,182,o),
(462,176,o),
(462,167,qs),
(462,157,o),
(454,154,q),
(427,140,o),
(373,129,o),
(341,129,qs),
(302,129,o),
(232,157,o),
(180,208,o),
(149,281,o),
(149,327,qs),
(149,376,o),
(182,464,o),
(242,531,o),
(328,570,o),
(381,570,qs),
(422,570,o),
(490,543,o),
(538,494,o),
(565,427,o),
(565,387,qs),
(565,351,o),
(547,295,o),
(515,256,o),
(475,236,o),
(452,236,qs),
(433,236,o)
);
},
{
closed = 1;
nodes = (
(329,413,o),
(302,381,o),
(286,339,o),
(287,316,qs),
(287,301,o),
(304,275,o),
(318,272,qs),
(333,268,o),
(362,281,o),
(386,307,o),
(403,341,o),
(406,357,qs),
(412,378,o),
(412,395,qs),
(413,409,o),
(403,432,o),
(387,432,qs),
(366,432,o)
);
}
);
userData = {
assembly = "PUSHW[ ]	/* 1 value pushed */
0 
CALL[ ]	/* CallFunction */
SVTCA[0]	/* SetFreedomAndProjectionVectorToAxis */
PUSHW[ ]	/* 1 value pushed */
0 
RCVT[ ]	/* ReadCVT */
IF[ ]	/* If */
PUSHW[ ]	/* 1 value pushed */
5 
MDAP[1]	/* MoveDirectAbsPt */
ELSE[ ]	/* Else */
PUSHW[ ]	/* 2 values pushed */
5 5 
MIAP[0]	/* MoveIndirectAbsPt */
EIF[ ]	/* EndIf */
PUSHW[ ]	/* 3 values pushed */
15 30 3 
CALL[ ]	/* CallFunction */
PUSHW[ ]	/* 3 values pushed */
85 52 3 
CALL[ ]	/* CallFunction */
PUSHW[ ]	/* 3 values pushed */
62 77 3 
CALL[ ]	/* CallFunction */
PUSHW[ ]	/* 3 values pushed */
91 68 3 
CALL[ ]	/* CallFunction */
PUSHW[ ]	/* 1 value pushed */
85 
SRP0[ ]	/* SetRefPoint0 */
PUSHW[ ]	/* 1 value pushed */
20 
MDRP[10000]	/* MoveDirectRelPt */
PUSHW[ ]	/* 1 value pushed */
5 
SRP0[ ]	/* SetRefPoint0 */
PUSHW[ ]	/* 1 value pushed */
40 
MDRP[11100]	/* MoveDirectRelPt */
NPUSHW[ ]	/* 27 values pushed */
7 40 23 40 39 40 55 40 71 40 87 40 103 40 119 40 135 40 151 40 167 40 183 40 199 40 13 
DELTAP1[ ]	/* DeltaExceptionP1 */
NPUSHW[ ]	/* 5 values pushed */
214 40 230 40 2 
DELTAP1[ ]	/* DeltaExceptionP1 */
PUSHW[ ]	/* 3 values pushed */
88 68 91 
SRP1[ ]	/* SetRefPoint1 */
SRP2[ ]	/* SetRefPoint2 */
IP[ ]	/* InterpolatePts */
SVTCA[1]	/* SetFreedomAndProjectionVectorToAxis */
PUSHW[ ]	/* 3 values pushed */
35 10 3 
CALL[ ]	/* CallFunction */
PUSHW[ ]	/* 3 values pushed */
82 57 3 
CALL[ ]	/* CallFunction */
PUSHW[ ]	/* 3 values pushed */
65 74 3 
CALL[ ]	/* CallFunction */
PUSHW[ ]	/* 3 values pushed */
0 25 3 
CALL[ ]	/* CallFunction */
PUSHW[ ]	/* 3 values pushed */
87 104 3 
CALL[ ]	/* CallFunction */
NPUSHW[ ]	/* 5 values pushed */
218 25 234 25 2 
DELTAP1[ ]	/* DeltaExceptionP1 */
NPUSHW[ ]	/* 27 values pushed */
9 25 25 25 41 25 57 25 73 25 89 25 105 25 121 25 137 25 153 25 169 25 185 25 201 25 13 
DELTAP1[ ]	/* DeltaExceptionP1 */
NPUSHW[ ]	/* 27 values pushed */
6 35 22 35 38 35 54 35 70 35 86 35 102 35 118 35 134 35 150 35 166 35 182 35 198 35 13 
DELTAP1[ ]	/* DeltaExceptionP1 */
NPUSHW[ ]	/* 5 values pushed */
213 35 229 35 2 
DELTAP1[ ]	/* DeltaExceptionP1 */
NPUSHW[ ]	/* 5 values pushed */
218 74 234 74 2 
DELTAP1[ ]	/* DeltaExceptionP1 */
NPUSHW[ ]	/* 27 values pushed */
9 74 25 74 41 74 57 74 73 74 89 74 105 74 121 74 137 74 153 74 169 74 185 74 201 74 13 
DELTAP1[ ]	/* DeltaExceptionP1 */
PUSHW[ ]	/* 1 value pushed */
74 
SRP0[ ]	/* SetRefPoint0 */
PUSHW[ ]	/* 1 value pushed */
72 
MDRP[10000]	/* MoveDirectRelPt */
PUSHW[ ]	/* 1 value pushed */
72 
MDAP[1]	/* MoveDirectAbsPt */
NPUSHW[ ]	/* 27 values pushed */
6 82 22 82 38 82 54 82 70 82 86 82 102 82 118 82 134 82 150 82 166 82 182 82 198 82 13 
DELTAP1[ ]	/* DeltaExceptionP1 */
NPUSHW[ ]	/* 5 values pushed */
213 82 229 82 2 
DELTAP1[ ]	/* DeltaExceptionP1 */
NPUSHW[ ]	/* 27 values pushed */
6 87 22 87 38 87 54 87 70 87 86 87 102 87 118 87 134 87 150 87 166 87 182 87 198 87 13 
DELTAP1[ ]	/* DeltaExceptionP1 */
NPUSHW[ ]	/* 5 values pushed */
213 87 229 87 2 
DELTAP1[ ]	/* DeltaExceptionP1 */
IUP[0]	/* InterpolateUntPts */
IUP[1]	/* InterpolateUntPts */";
};
width = 714;
}
);
note = at;
unicode = 64;
},
{
glyphname = A;
layers = (
{
layerId = m01;
shapes = (
{
closed = 1;
nodes = (
(164,645,o),
(69,550,o),
(14,422,o),
(14,350,qs),
(14,0,l),
(333,0,l),
(333,237,ls),
(333,247,o),
(341,257,qs),
(349,265,o),
(361,265,qs),
(373,265,o),
(382,256,qs),
(390,246,o),
(390,237,qs),
(390,0,l),
(714,0,l),
(714,350,ls),
(714,422,o),
(659,550,o),
(564,645,o),
(436,700,o),
(364,700,qs),
(292,700,o)
);
},
{
closed = 1;
nodes = (
(333,379,l),
(333,431,ls),
(333,443,o),
(341,451,qs),
(348,459,o),
(361,459,qs),
(372,459,o),
(382,451,q),
(390,441,o),
(390,431,qs),
(390,379,l)
);
}
);
userData = {
assembly = "PUSHW[ ]	/* 1 value pushed */
0 
CALL[ ]	/* CallFunction */
SVTCA[0]	/* SetFreedomAndProjectionVectorToAxis */
PUSHW[ ]	/* 1 value pushed */
0 
RCVT[ ]	/* ReadCVT */
IF[ ]	/* If */
PUSHW[ ]	/* 1 value pushed */
6 
MDAP[1]	/* MoveDirectAbsPt */
ELSE[ ]	/* Else */
PUSHW[ ]	/* 2 values pushed */
6 5 
MIAP[0]	/* MoveIndirectAbsPt */
EIF[ ]	/* EndIf */
PUSHW[ ]	/* 1 value pushed */
0 
RCVT[ ]	/* ReadCVT */
IF[ ]	/* If */
PUSHW[ ]	/* 1 value pushed */
17 
MDAP[1]	/* MoveDirectAbsPt */
ELSE[ ]	/* Else */
PUSHW[ ]	/* 2 values pushed */
17 5 
MIAP[0]	/* MoveIndirectAbsPt */
EIF[ ]	/* EndIf */
PUSHW[ ]	/* 3 values pushed */
0 28 3 
CALL[ ]	/* CallFunction */
PUSHW[ ]	/* 3 values pushed */
33 12 3 
CALL[ ]	/* CallFunction */
SVTCA[1]	/* SetFreedomAndProjectionVectorToAxis */
PUSHW[ ]	/* 1 value pushed */
35 
MDAP[1]	/* MoveDirectAbsPt */
PUSHW[ ]	/* 1 value pushed */
7 
MDAP[1]	/* MoveDirectAbsPt */
PUSHW[ ]	/* 1 value pushed */
6 
MDRP[11100]	/* MoveDirectRelPt */
PUSHW[ ]	/* 1 value pushed */
35 
SRP0[ ]	/* SetRefPoint0 */
PUSHW[ ]	/* 1 value pushed */
18 
MDRP[10000]	/* MoveDirectRelPt */
PUSHW[ ]	/* 1 value pushed */
18 
MDAP[1]	/* MoveDirectAbsPt */
PUSHW[ ]	/* 1 value pushed */
17 
MDRP[11100]	/* MoveDirectRelPt */
PUSHW[ ]	/* 1 value pushed */
7 
SRP0[ ]	/* SetRefPoint0 */
PUSHW[ ]	/* 1 value pushed */
24 
MDRP[10000]	/* MoveDirectRelPt */
PUSHW[ ]	/* 1 value pushed */
17 
SRP0[ ]	/* SetRefPoint0 */
PUSHW[ ]	/* 1 value pushed */
32 
MDRP[10000]	/* MoveDirectRelPt */
IUP[0]	/* InterpolateUntPts */
IUP[1]	/* InterpolateUntPts */";
};
width = 729;
}
);
note = A;
unicode = (65,97,192,193,194,195,196,197,224,225,226,227,228,229);
},
{
glyphname = B;
layers = (
{
layerId = m01;
shapes = (
{
closed = 1;
nodes = (
(662,328,o),
(652,336,q),
(644,346,o),
(644,356,qs),
(644,367,o),
(661,385,o),
(672,385,qs),
(723,385,l),
(717,451,o),
(657,566,o),
(564,651,o),
(443,700,o),
(375,700,qs),
(25,700,l),
(25,0,l),
(375,0,ls),
(445,0,o),
(568,51,o),
(662,140,o),
(720,259,o),
(724,328,q),
(672,328,ls)
);
},
{
closed = 1;
nodes = (
(336,464,qs),
(283,464,l),
(283,521,l),
(336,521,ls),
(348,521,o),
(364,505,o),
(364,493,qs),
(364,481,o),
(355,473,q),
(348,464,o)
);
},
{
closed = 1;
nodes = (
(347,179,o),
(336,179,qs),
(283,179,l),
(283,236,l),
(336,236,ls),
(348,236,o),
(364,220,o),
(364,208,qs),
(364,197,o)
);
}
);
userData = {
assembly = "PUSHW[ ]	/* 1 value pushed */
0 
CALL[ ]	/* CallFunction */
SVTCA[0]	/* SetFreedomAndProjectionVectorToAxis */
PUSHW[ ]	/* 1 value pushed */
0 
RCVT[ ]	/* ReadCVT */
IF[ ]	/* If */
PUSHW[ ]	/* 1 value pushed */
5 
MDAP[1]	/* MoveDirectAbsPt */
ELSE[ ]	/* Else */
PUSHW[ ]	/* 2 values pushed */
5 5 
MIAP[0]	/* MoveIndirectAbsPt */
EIF[ ]	/* EndIf */
PUSHW[ ]	/* 3 values pushed */
8 27 3 
CALL[ ]	/* CallFunction */
PUSHW[ ]	/* 1 value pushed */
5 
SRP0[ ]	/* SetRefPoint0 */
PUSHW[ ]	/* 1 value pushed */
37 
MDRP[11100]	/* MoveDirectRelPt */
SVTCA[1]	/* SetFreedomAndProjectionVectorToAxis */
PUSHW[ ]	/* 3 values pushed */
37 6 3 
CALL[ ]	/* CallFunction */
PUSHW[ ]	/* 1 value pushed */
37 
SRP0[ ]	/* SetRefPoint0 */
PUSHW[ ]	/* 1 value pushed */
28 
MDRP[10000]	/* MoveDirectRelPt */
IUP[0]	/* InterpolateUntPts */
IUP[1]	/* InterpolateUntPts */";
};
width = 725;
}
);
note = B;
unicode = (66,98);
},
{
glyphname = C;
layers = (
{
layerId = m01;
shapes = (
{
closed = 1;
nodes = (
(702,700,l),
(352,700,ls),
(280,700,o),
(152,645,o),
(57,550,o),
(2,422,o),
(2,350,qs),
(2,278,o),
(57,150,o),
(152,55,o),
(280,0,o),
(352,0,qs),
(702,0,l),
(702,322,l),
(466,322,ls),
(453,322,o),
(446,330,qs),
(438,337,o),
(438,350,qs),
(438,361,o),
(454,379,o),
(466,379,qs),
(702,379,l)
);
}
);
userData = {
assembly = "PUSHW[ ]	/* 1 value pushed */
0 
CALL[ ]	/* CallFunction */
SVTCA[0]	/* SetFreedomAndProjectionVectorToAxis */
PUSHW[ ]	/* 1 value pushed */
0 
RCVT[ ]	/* ReadCVT */
IF[ ]	/* If */
PUSHW[ ]	/* 1 value pushed */
9 
MDAP[1]	/* MoveDirectAbsPt */
ELSE[ ]	/* Else */
PUSHW[ ]	/* 2 values pushed */
9 5 
MIAP[0]	/* MoveIndirectAbsPt */
EIF[ ]	/* EndIf */
PUSHW[ ]	/* 3 values pushed */
20 0 3 
CALL[ ]	/* CallFunction */
PUSHW[ ]	/* 1 value pushed */
9 
SRP0[ ]	/* SetRefPoint0 */
PUSHW[ ]	/* 1 value pushed */
7 
MDRP[11100]	/* MoveDirectRelPt */
IUP[0]	/* InterpolateUntPts */
IUP[1]	/* InterpolateUntPts */";
};
width = 727;
}
);
note = C;
unicode = (67,99,199,231);
},
{
glyphname = D;
layers = (
{
layerId = m01;
shapes = (
{
closed = 1;
nodes = (
(25,0,l),
(375,0,ls),
(447,0,o),
(575,55,o),
(670,150,o),
(725,278,o),
(725,350,qs),
(725,422,o),
(670,550,o),
(575,645,o),
(447,700,o),
(375,700,qs),
(25,700,l)
);
},
{
closed = 1;
nodes = (
(336,322,qs),
(283,322,l),
(283,379,l),
(336,379,ls),
(348,379,o),
(356,371,qs),
(364,361,o),
(364,351,qs),
(364,339,o),
(355,330,qs),
(348,322,o)
);
}
);
userData = {
assembly = "PUSHW[ ]	/* 1 value pushed */
0 
CALL[ ]	/* CallFunction */
SVTCA[0]	/* SetFreedomAndProjectionVectorToAxis */
PUSHW[ ]	/* 1 value pushed */
0 
RCVT[ ]	/* ReadCVT */
IF[ ]	/* If */
PUSHW[ ]	/* 1 value pushed */
10 
MDAP[1]	/* MoveDirectAbsPt */
ELSE[ ]	/* Else */
PUSHW[ ]	/* 2 values pushed */
10 5 
MIAP[0]	/* MoveIndirectAbsPt */
EIF[ ]	/* EndIf */
PUSHW[ ]	/* 3 values pushed */
0 19 3 
CALL[ ]	/* CallFunction */
PUSHW[ ]	/* 1 value pushed */
10 
SRP0[ ]	/* SetRefPoint0 */
PUSHW[ ]	/* 1 value pushed */
21 
MDRP[11100]	/* MoveDirectRelPt */
SVTCA[1]	/* SetFreedomAndProjectionVectorToAxis */
PUSHW[ ]	/* 3 values pushed */
21 11 3 
CALL[ ]	/* CallFunction */
IUP[0]	/* InterpolateUntPts */
IUP[1]	/* InterpolateUntPts */";
};
width = 728;
}
);
note = D;
unicode = (68,100);
},
{
glyphname = E;
layers = (
{
layerId = m01;
shapes = (
{
closed = 1;
nodes = (
(703,704,l),
(353,704,ls),
(280,704,o),
(152,649,o),
(57,554,o),
(2,426,o),
(2,353,qs),
(2,281,o),
(57,153,o),
(152,58,o),
(280,3,o),
(353,3,qs),
(703,3,l),
(703,205,l),
(466,205,ls),
(453,205,o),
(446,213,qs),
(438,221,o),
(438,233,qs),
(438,246,o),
(447,253,q),
(455,262,o),
(466,262,qs),
(703,262,l),
(703,445,l),
(466,445,ls),
(453,445,o),
(446,453,qs),
(438,461,o),
(438,473,qs),
(438,486,o),
(447,493,q),
(455,502,o),
(466,502,qs),
(703,502,l)
);
}
);
userData = {
assembly = "PUSHW[ ]	/* 1 value pushed */
0 
CALL[ ]	/* CallFunction */
SVTCA[0]	/* SetFreedomAndProjectionVectorToAxis */
PUSHW[ ]	/* 1 value pushed */
0 
RCVT[ ]	/* ReadCVT */
IF[ ]	/* If */
PUSHW[ ]	/* 1 value pushed */
32 
MDAP[1]	/* MoveDirectAbsPt */
ELSE[ ]	/* Else */
PUSHW[ ]	/* 2 values pushed */
32 7 
MIAP[0]	/* MoveIndirectAbsPt */
EIF[ ]	/* EndIf */
PUSHW[ ]	/* 3 values pushed */
20 21 3 
CALL[ ]	/* CallFunction */
PUSHW[ ]	/* 3 values pushed */
9 10 3 
CALL[ ]	/* CallFunction */
PUSHW[ ]	/* 1 value pushed */
32 
SRP0[ ]	/* SetRefPoint0 */
PUSHW[ ]	/* 1 value pushed */
0 
MDRP[11100]	/* MoveDirectRelPt */
IUP[0]	/* InterpolateUntPts */
IUP[1]	/* InterpolateUntPts */";
};
width = 726;
}
);
note = E;
unicode = (69,101,200,201,202,203,232,233,234,235);
},
{
glyphname = F;
layers = (
{
layerId = m01;
shapes = (
{
closed = 1;
nodes = (
(691,681,l),
(264,681,ls),
(212,681,o),
(119,641,o),
(50,572,o),
(10,480,o),
(10,427,qs),
(10,254,ls),
(10,202,o),
(50,109,o),
(119,40,o),
(212,0,o),
(264,0,qs),
(436,0,l),
(434,205,l),
(691,206,l),
(691,415,l),
(461,415,ls),
(450,415,o),
(442,423,qs),
(434,430,o),
(434,442,qs),
(434,453,o),
(450,471,o),
(461,471,qs),
(691,471,l)
);
}
);
userData = {
assembly = "PUSHW[ ]	/* 1 value pushed */
0 
CALL[ ]	/* CallFunction */
SVTCA[0]	/* SetFreedomAndProjectionVectorToAxis */
PUSHW[ ]	/* 1 value pushed */
0 
RCVT[ ]	/* ReadCVT */
IF[ ]	/* If */
PUSHW[ ]	/* 1 value pushed */
11 
MDAP[1]	/* MoveDirectAbsPt */
ELSE[ ]	/* Else */
PUSHW[ ]	/* 2 values pushed */
11 5 
MIAP[0]	/* MoveIndirectAbsPt */
EIF[ ]	/* EndIf */
PUSHW[ ]	/* 3 values pushed */
7 10 3 
CALL[ ]	/* CallFunction */
PUSHW[ ]	/* 3 values pushed */
23 0 3 
CALL[ ]	/* CallFunction */
IUP[0]	/* InterpolateUntPts */
IUP[1]	/* InterpolateUntPts */";
};
width = 705;
}
);
note = F;
unicode = (70,102);
},
{
glyphname = G;
layers = (
{
layerId = m01;
shapes = (
{
closed = 1;
nodes = (
(458,390,o),
(470,390,qs),
(708,390,l),
(708,706,l),
(351,706,ls),
(279,706,o),
(151,651,o),
(57,557,o),
(2,430,o),
(2,358,qs),
(2,349,ls),
(2,277,o),
(57,149,o),
(151,55,o),
(279,0,o),
(351,0,qs),
(708,0,l),
(708,332,l),
(499,332,l),
(499,308,ls),
(499,297,o),
(491,287,q),
(481,279,o),
(471,279,qs),
(460,279,o),
(441,296,o),
(441,308,qs),
(441,361,l),
(442,361,l),
(442,372,o)
);
}
);
userData = {
assembly = "PUSHW[ ]	/* 1 value pushed */
0 
CALL[ ]	/* CallFunction */
SVTCA[0]	/* SetFreedomAndProjectionVectorToAxis */
PUSHW[ ]	/* 1 value pushed */
0 
RCVT[ ]	/* ReadCVT */
IF[ ]	/* If */
PUSHW[ ]	/* 1 value pushed */
24 
MDAP[1]	/* MoveDirectAbsPt */
ELSE[ ]	/* Else */
PUSHW[ ]	/* 2 values pushed */
24 7 
MIAP[0]	/* MoveIndirectAbsPt */
EIF[ ]	/* EndIf */
PUSHW[ ]	/* 1 value pushed */
0 
RCVT[ ]	/* ReadCVT */
IF[ ]	/* If */
PUSHW[ ]	/* 1 value pushed */
12 
MDAP[1]	/* MoveDirectAbsPt */
ELSE[ ]	/* Else */
PUSHW[ ]	/* 2 values pushed */
12 5 
MIAP[0]	/* MoveIndirectAbsPt */
EIF[ ]	/* EndIf */
PUSHW[ ]	/* 1 value pushed */
5 
MDRP[11100]	/* MoveDirectRelPt */
NPUSHW[ ]	/* 27 values pushed */
7 5 23 5 39 5 55 5 71 5 87 5 103 5 119 5 135 5 151 5 167 5 183 5 199 5 13 
DELTAP1[ ]	/* DeltaExceptionP1 */
NPUSHW[ ]	/* 5 values pushed */
214 5 230 5 2 
DELTAP1[ ]	/* DeltaExceptionP1 */
PUSHW[ ]	/* 1 value pushed */
12 
SRP0[ ]	/* SetRefPoint0 */
PUSHW[ ]	/* 1 value pushed */
10 
MDRP[11100]	/* MoveDirectRelPt */
PUSHW[ ]	/* 1 value pushed */
24 
SRP0[ ]	/* SetRefPoint0 */
PUSHW[ ]	/* 1 value pushed */
26 
MDRP[11100]	/* MoveDirectRelPt */
SVTCA[1]	/* SetFreedomAndProjectionVectorToAxis */
PUSHW[ ]	/* 3 values pushed */
11 10 3 
CALL[ ]	/* CallFunction */
PUSHW[ ]	/* 1 value pushed */
11 
SRP0[ ]	/* SetRefPoint0 */
PUSHW[ ]	/* 1 value pushed */
25 
MDRP[10000]	/* MoveDirectRelPt */
IUP[0]	/* InterpolateUntPts */
IUP[1]	/* InterpolateUntPts */";
};
width = 733;
}
);
note = G;
unicode = (71,103);
},
{
glyphname = H;
layers = (
{
layerId = m01;
shapes = (
{
closed = 1;
nodes = (
(392,451,o),
(384,444,qs),
(377,436,o),
(365,436,qs),
(352,436,o),
(336,451,o),
(336,464,qs),
(336,699,l),
(269,693,o),
(151,635,o),
(64,541,o),
(14,419,o),
(14,350,qs),
(14,0,l),
(336,0,l),
(336,237,ls),
(336,249,o),
(352,265,o),
(364,265,qs),
(375,265,o),
(392,248,o),
(392,237,qs),
(392,0,l),
(714,0,l),
(714,350,ls),
(714,419,o),
(664,541,o),
(577,635,o),
(460,693,o),
(392,699,q),
(392,464,ls)
);
}
);
userData = {
assembly = "PUSHW[ ]	/* 1 value pushed */
0 
CALL[ ]	/* CallFunction */
SVTCA[0]	/* SetFreedomAndProjectionVectorToAxis */
PUSHW[ ]	/* 1 value pushed */
0 
RCVT[ ]	/* ReadCVT */
IF[ ]	/* If */
PUSHW[ ]	/* 1 value pushed */
6 
MDAP[1]	/* MoveDirectAbsPt */
ELSE[ ]	/* Else */
PUSHW[ ]	/* 2 values pushed */
6 5 
MIAP[0]	/* MoveIndirectAbsPt */
EIF[ ]	/* EndIf */
PUSHW[ ]	/* 1 value pushed */
0 
RCVT[ ]	/* ReadCVT */
IF[ ]	/* If */
PUSHW[ ]	/* 1 value pushed */
15 
MDAP[1]	/* MoveDirectAbsPt */
ELSE[ ]	/* Else */
PUSHW[ ]	/* 2 values pushed */
15 5 
MIAP[0]	/* MoveIndirectAbsPt */
EIF[ ]	/* EndIf */
PUSHW[ ]	/* 3 values pushed */
26 11 3 
CALL[ ]	/* CallFunction */
SVTCA[1]	/* SetFreedomAndProjectionVectorToAxis */
PUSHW[ ]	/* 1 value pushed */
31 
MDAP[1]	/* MoveDirectAbsPt */
PUSHW[ ]	/* 1 value pushed */
8 
MDAP[1]	/* MoveDirectAbsPt */
PUSHW[ ]	/* 1 value pushed */
0 
MDRP[10000]	/* MoveDirectRelPt */
PUSHW[ ]	/* 1 value pushed */
8 
SRP0[ ]	/* SetRefPoint0 */
PUSHW[ ]	/* 1 value pushed */
5 
MDRP[11100]	/* MoveDirectRelPt */
PUSHW[ ]	/* 1 value pushed */
31 
SRP0[ ]	/* SetRefPoint0 */
PUSHW[ ]	/* 1 value pushed */
16 
MDRP[10000]	/* MoveDirectRelPt */
PUSHW[ ]	/* 1 value pushed */
16 
MDAP[1]	/* MoveDirectAbsPt */
PUSHW[ ]	/* 1 value pushed */
15 
MDRP[11100]	/* MoveDirectRelPt */
PUSHW[ ]	/* 1 value pushed */
22 
MDRP[10000]	/* MoveDirectRelPt */
IUP[0]	/* InterpolateUntPts */
IUP[1]	/* InterpolateUntPts */";
};
width = 728;
}
);
note = H;
unicode = (72,104);
},
{
glyphname = I;
layers = (
{
layerId = m01;
shapes = (
{
closed = 1;
nodes = (
(210,700,l),
(208,700,l)
);
},
{
closed = 1;
nodes = (
(102,670,o),
(51,619,o),
(21,550,o),
(21,511,qs),
(21,0,l),
(397,0,l),
(397,511,ls),
(397,550,o),
(368,619,o),
(317,670,o),
(248,700,o),
(209,700,qs),
(170,700,o)
);
}
);
userData = {
assembly = "PUSHW[ ]	/* 1 value pushed */
0 
CALL[ ]	/* CallFunction */
SVTCA[0]	/* SetFreedomAndProjectionVectorToAxis */
PUSHW[ ]	/* 1 value pushed */
0 
RCVT[ ]	/* ReadCVT */
IF[ ]	/* If */
PUSHW[ ]	/* 1 value pushed */
8 
MDAP[1]	/* MoveDirectAbsPt */
ELSE[ ]	/* Else */
PUSHW[ ]	/* 2 values pushed */
8 5 
MIAP[0]	/* MoveIndirectAbsPt */
EIF[ ]	/* EndIf */
IUP[0]	/* InterpolateUntPts */
IUP[1]	/* InterpolateUntPts */";
};
width = 419;
}
);
note = I;
unicode = (73,105,204,205,206,207,236,237,238,239);
},
{
glyphname = J;
layers = (
{
layerId = m01;
shapes = (
{
closed = 1;
nodes = (
(12,500,l),
(392,500,l),
(391,234,ls),
(391,223,o),
(382,215,q),
(375,206,o),
(362,206,qs),
(351,206,o),
(341,214,qs),
(333,222,o),
(333,234,qs),
(333,288,l),
(334,442,l),
(12,442,l),
(12,350,ls),
(12,278,o),
(67,150,o),
(162,55,o),
(290,0,o),
(362,0,qs),
(434,0,o),
(562,55,o),
(657,150,o),
(712,278,o),
(712,350,qs),
(712,700,l),
(12,700,l)
);
}
);
userData = {
assembly = "PUSHW[ ]	/* 1 value pushed */
0 
CALL[ ]	/* CallFunction */
SVTCA[0]	/* SetFreedomAndProjectionVectorToAxis */
PUSHW[ ]	/* 1 value pushed */
0 
RCVT[ ]	/* ReadCVT */
IF[ ]	/* If */
PUSHW[ ]	/* 1 value pushed */
6 
MDAP[1]	/* MoveDirectAbsPt */
ELSE[ ]	/* Else */
PUSHW[ ]	/* 2 values pushed */
6 5 
MIAP[0]	/* MoveIndirectAbsPt */
EIF[ ]	/* EndIf */
PUSHW[ ]	/* 3 values pushed */
0 24 3 
CALL[ ]	/* CallFunction */
PUSHW[ ]	/* 1 value pushed */
6 
SRP0[ ]	/* SetRefPoint0 */
PUSHW[ ]	/* 1 value pushed */
19 
MDRP[11100]	/* MoveDirectRelPt */
NPUSHW[ ]	/* 27 values pushed */
7 19 23 19 39 19 55 19 71 19 87 19 103 19 119 19 135 19 151 19 167 19 183 19 199 19 13 
DELTAP1[ ]	/* DeltaExceptionP1 */
NPUSHW[ ]	/* 5 values pushed */
214 19 230 19 2 
DELTAP1[ ]	/* DeltaExceptionP1 */
SVTCA[1]	/* SetFreedomAndProjectionVectorToAxis */
PUSHW[ ]	/* 1 value pushed */
27 
MDAP[1]	/* MoveDirectAbsPt */
PUSHW[ ]	/* 1 value pushed */
23 
MDAP[1]	/* MoveDirectAbsPt */
PUSHW[ ]	/* 1 value pushed */
1 
MDRP[11100]	/* MoveDirectRelPt */
PUSHW[ ]	/* 1 value pushed */
27 
SRP0[ ]	/* SetRefPoint0 */
PUSHW[ ]	/* 1 value pushed */
11 
MDRP[10000]	/* MoveDirectRelPt */
PUSHW[ ]	/* 1 value pushed */
11 
MDAP[1]	/* MoveDirectAbsPt */
PUSHW[ ]	/* 1 value pushed */
14 
MDRP[11100]	/* MoveDirectRelPt */
PUSHW[ ]	/* 1 value pushed */
11 
SRP0[ ]	/* SetRefPoint0 */
PUSHW[ ]	/* 1 value pushed */
25 
MDRP[10000]	/* MoveDirectRelPt */
IUP[0]	/* InterpolateUntPts */
IUP[1]	/* InterpolateUntPts */";
};
width = 726;
}
);
note = J;
unicode = (74,106);
},
{
glyphname = K;
layers = (
{
layerId = m01;
shapes = (
{
closed = 1;
nodes = (
(301,352,q),
(301,353,l),
(302,355,l),
(302,365,o),
(309,372,qs),
(623,700,l),
(352,700,ls),
(280,700,o),
(152,645,o),
(57,550,o),
(2,422,o),
(2,350,qs),
(2,278,o),
(57,150,o),
(152,55,o),
(280,0,o),
(352,0,qs),
(624,0,l),
(309,333,ls),
(302,340,o),
(302,350,qs),
(302,351,o)
);
},
{
closed = 1;
nodes = (
(702,0,l),
(702,700,l),
(369,352,l)
);
}
);
userData = {
assembly = "PUSHW[ ]	/* 1 value pushed */
0 
CALL[ ]	/* CallFunction */
SVTCA[0]	/* SetFreedomAndProjectionVectorToAxis */
PUSHW[ ]	/* 1 value pushed */
0 
RCVT[ ]	/* ReadCVT */
IF[ ]	/* If */
PUSHW[ ]	/* 1 value pushed */
3 
MDAP[1]	/* MoveDirectAbsPt */
ELSE[ ]	/* Else */
PUSHW[ ]	/* 2 values pushed */
3 5 
MIAP[0]	/* MoveIndirectAbsPt */
EIF[ ]	/* EndIf */
PUSHW[ ]	/* 1 value pushed */
0 
RCVT[ ]	/* ReadCVT */
IF[ ]	/* If */
PUSHW[ ]	/* 1 value pushed */
23 
MDAP[1]	/* MoveDirectAbsPt */
ELSE[ ]	/* Else */
PUSHW[ ]	/* 2 values pushed */
23 5 
MIAP[0]	/* MoveIndirectAbsPt */
EIF[ ]	/* EndIf */
IUP[0]	/* InterpolateUntPts */
IUP[1]	/* InterpolateUntPts */";
};
width = 727;
}
);
note = K;
unicode = (75,107);
},
{
glyphname = L;
layers = (
{
layerId = m01;
shapes = (
{
closed = 1;
nodes = (
(334,699,l),
(267,693,o),
(150,635,o),
(63,541,o),
(13,419,o),
(13,350,qs),
(13,0,l),
(713,0,l),
(713,200,l),
(333,200,l)
);
},
{
closed = 1;
nodes = (
(391,258,l),
(713,258,l),
(713,350,ls),
(713,419,o),
(663,541,o),
(577,635,o),
(460,693,o),
(392,699,q),
(392,413,l)
);
}
);
userData = {
assembly = "PUSHW[ ]	/* 1 value pushed */
0 
CALL[ ]	/* CallFunction */
SVTCA[0]	/* SetFreedomAndProjectionVectorToAxis */
PUSHW[ ]	/* 1 value pushed */
0 
RCVT[ ]	/* ReadCVT */
IF[ ]	/* If */
PUSHW[ ]	/* 1 value pushed */
1 
MDAP[1]	/* MoveDirectAbsPt */
ELSE[ ]	/* Else */
PUSHW[ ]	/* 2 values pushed */
1 5 
MIAP[0]	/* MoveIndirectAbsPt */
EIF[ ]	/* EndIf */
PUSHW[ ]	/* 1 value pushed */
0 
MDRP[11100]	/* MoveDirectRelPt */
SVTCA[1]	/* SetFreedomAndProjectionVectorToAxis */
PUSHW[ ]	/* 1 value pushed */
19 
MDAP[1]	/* MoveDirectAbsPt */
PUSHW[ ]	/* 1 value pushed */
18 
MDAP[1]	/* MoveDirectAbsPt */
PUSHW[ ]	/* 1 value pushed */
15 
MDRP[11100]	/* MoveDirectRelPt */
PUSHW[ ]	/* 1 value pushed */
0 
MDRP[10000]	/* MoveDirectRelPt */
PUSHW[ ]	/* 1 value pushed */
19 
SRP0[ ]	/* SetRefPoint0 */
PUSHW[ ]	/* 1 value pushed */
3 
MDRP[10000]	/* MoveDirectRelPt */
PUSHW[ ]	/* 1 value pushed */
3 
MDAP[1]	/* MoveDirectAbsPt */
PUSHW[ ]	/* 1 value pushed */
9 
MDRP[11100]	/* MoveDirectRelPt */
IUP[0]	/* InterpolateUntPts */
IUP[1]	/* InterpolateUntPts */";
};
width = 727;
}
);
note = L;
unicode = (76,108);
},
{
glyphname = M;
layers = (
{
layerId = m01;
shapes = (
{
closed = 1;
nodes = (
(268,693,o),
(150,634,o),
(64,541,o),
(14,419,o),
(14,350,qs),
(14,0,l),
(222,0,l),
(222,236,ls),
(222,249,o),
(230,256,qs),
(237,264,o),
(250,264,qs),
(261,264,o),
(279,248,o),
(279,236,qs),
(279,0,l),
(449,0,l),
(449,236,ls),
(449,249,o),
(458,256,q),
(465,264,o),
(477,264,qs),
(488,264,o),
(498,256,q),
(506,246,o),
(506,236,qs),
(506,0,l),
(714,0,l),
(714,350,ls),
(714,419,o),
(664,541,o),
(578,634,o),
(461,693,o),
(393,698,q),
(335,698,l)
);
}
);
userData = {
assembly = "PUSHW[ ]	/* 1 value pushed */
0 
CALL[ ]	/* CallFunction */
SVTCA[0]	/* SetFreedomAndProjectionVectorToAxis */
PUSHW[ ]	/* 1 value pushed */
0 
RCVT[ ]	/* ReadCVT */
IF[ ]	/* If */
PUSHW[ ]	/* 1 value pushed */
6 
MDAP[1]	/* MoveDirectAbsPt */
ELSE[ ]	/* Else */
PUSHW[ ]	/* 2 values pushed */
6 5 
MIAP[0]	/* MoveIndirectAbsPt */
EIF[ ]	/* EndIf */
PUSHW[ ]	/* 1 value pushed */
0 
RCVT[ ]	/* ReadCVT */
IF[ ]	/* If */
PUSHW[ ]	/* 1 value pushed */
17 
MDAP[1]	/* MoveDirectAbsPt */
ELSE[ ]	/* Else */
PUSHW[ ]	/* 2 values pushed */
17 5 
MIAP[0]	/* MoveIndirectAbsPt */
EIF[ ]	/* EndIf */
PUSHW[ ]	/* 1 value pushed */
0 
RCVT[ ]	/* ReadCVT */
IF[ ]	/* If */
PUSHW[ ]	/* 1 value pushed */
27 
MDAP[1]	/* MoveDirectAbsPt */
ELSE[ ]	/* Else */
PUSHW[ ]	/* 2 values pushed */
27 5 
MIAP[0]	/* MoveIndirectAbsPt */
EIF[ ]	/* EndIf */
SVTCA[1]	/* SetFreedomAndProjectionVectorToAxis */
PUSHW[ ]	/* 1 value pushed */
35 
MDAP[1]	/* MoveDirectAbsPt */
PUSHW[ ]	/* 1 value pushed */
28 
SRP0[ ]	/* SetRefPoint0 */
PUSHW[ ]	/* 1 value pushed */
18 
MDRP[11100]	/* MoveDirectRelPt */
PUSHW[ ]	/* 1 value pushed */
7 
MDRP[11100]	/* MoveDirectRelPt */
PUSHW[ ]	/* 1 value pushed */
6 
MDRP[11100]	/* MoveDirectRelPt */
PUSHW[ ]	/* 1 value pushed */
18 
SRP0[ ]	/* SetRefPoint0 */
PUSHW[ ]	/* 1 value pushed */
17 
MDRP[11100]	/* MoveDirectRelPt */
PUSHW[ ]	/* 1 value pushed */
28 
SRP0[ ]	/* SetRefPoint0 */
PUSHW[ ]	/* 1 value pushed */
27 
MDRP[11100]	/* MoveDirectRelPt */
IUP[0]	/* InterpolateUntPts */
IUP[1]	/* InterpolateUntPts */";
};
width = 728;
}
);
note = M;
unicode = (77,109);
},
{
glyphname = N;
layers = (
{
layerId = m01;
shapes = (
{
closed = 1;
nodes = (
(714,0,l),
(714,350,ls),
(714,422,o),
(659,550,o),
(564,645,o),
(436,700,o),
(364,700,qs),
(292,700,o),
(164,645,o),
(69,550,o),
(14,422,o),
(14,350,qs),
(14,0,l),
(336,0,l),
(336,237,ls),
(336,249,o),
(352,265,o),
(364,265,qs),
(375,265,o),
(393,248,o),
(393,237,qs),
(393,0,l)
);
}
);
userData = {
assembly = "PUSHW[ ]	/* 1 value pushed */
0 
CALL[ ]	/* CallFunction */
SVTCA[0]	/* SetFreedomAndProjectionVectorToAxis */
PUSHW[ ]	/* 1 value pushed */
0 
RCVT[ ]	/* ReadCVT */
IF[ ]	/* If */
PUSHW[ ]	/* 1 value pushed */
7 
MDAP[1]	/* MoveDirectAbsPt */
ELSE[ ]	/* Else */
PUSHW[ ]	/* 2 values pushed */
7 5 
MIAP[0]	/* MoveIndirectAbsPt */
EIF[ ]	/* EndIf */
PUSHW[ ]	/* 1 value pushed */
0 
RCVT[ ]	/* ReadCVT */
IF[ ]	/* If */
PUSHW[ ]	/* 1 value pushed */
20 
MDAP[1]	/* MoveDirectAbsPt */
ELSE[ ]	/* Else */
PUSHW[ ]	/* 2 values pushed */
20 5 
MIAP[0]	/* MoveIndirectAbsPt */
EIF[ ]	/* EndIf */
SVTCA[1]	/* SetFreedomAndProjectionVectorToAxis */
PUSHW[ ]	/* 1 value pushed */
22 
MDAP[1]	/* MoveDirectAbsPt */
PUSHW[ ]	/* 1 value pushed */
0 
MDAP[1]	/* MoveDirectAbsPt */
PUSHW[ ]	/* 1 value pushed */
22 
SRP0[ ]	/* SetRefPoint0 */
PUSHW[ ]	/* 1 value pushed */
8 
MDRP[10000]	/* MoveDirectRelPt */
PUSHW[ ]	/* 1 value pushed */
8 
MDAP[1]	/* MoveDirectAbsPt */
PUSHW[ ]	/* 1 value pushed */
7 
MDRP[11100]	/* MoveDirectRelPt */
PUSHW[ ]	/* 1 value pushed */
0 
SRP0[ ]	/* SetRefPoint0 */
PUSHW[ ]	/* 1 value pushed */
19 
MDRP[11100]	/* MoveDirectRelPt */
IUP[0]	/* InterpolateUntPts */
IUP[1]	/* InterpolateUntPts */";
};
width = 729;
}
);
note = N;
unicode = (78,110,209,241);
},
{
glyphname = O;
layers = (
{
layerId = m01;
shapes = (
{
closed = 1;
nodes = (
(647,550,o),
(552,645,o),
(424,700,o),
(352,700,qs),
(280,700,o),
(152,645,o),
(57,550,o),
(2,422,o),
(2,350,qs),
(2,277,o),
(57,150,o),
(152,55,o),
(279,0,o),
(352,0,qs),
(425,0,o),
(552,55,o),
(647,150,o),
(702,277,o),
(702,350,qs),
(702,422,o)
);
},
{
closed = 1;
nodes = (
(324,310,l),
(324,362,ls),
(324,375,o),
(332,382,qs),
(339,390,o),
(352,390,qs),
(362,390,o),
(372,382,qs),
(381,373,o),
(381,362,qs),
(381,310,l)
);
}
);
userData = {
assembly = "PUSHW[ ]	/* 1 value pushed */
0 
CALL[ ]	/* CallFunction */
SVTCA[0]	/* SetFreedomAndProjectionVectorToAxis */
PUSHW[ ]	/* 1 value pushed */
0 
RCVT[ ]	/* ReadCVT */
IF[ ]	/* If */
PUSHW[ ]	/* 1 value pushed */
5 
MDAP[1]	/* MoveDirectAbsPt */
ELSE[ ]	/* Else */
PUSHW[ ]	/* 2 values pushed */
5 5 
MIAP[0]	/* MoveIndirectAbsPt */
EIF[ ]	/* EndIf */
PUSHW[ ]	/* 1 value pushed */
29 
MDRP[11100]	/* MoveDirectRelPt */
SVTCA[1]	/* SetFreedomAndProjectionVectorToAxis */
PUSHW[ ]	/* 3 values pushed */
28 10 3 
CALL[ ]	/* CallFunction */
PUSHW[ ]	/* 3 values pushed */
0 20 3 
CALL[ ]	/* CallFunction */
IUP[0]	/* InterpolateUntPts */
IUP[1]	/* InterpolateUntPts */";
};
width = 704;
}
);
note = O;
unicode = (79,111,210,211,212,213,214,216,242,243,244,245,246,248);
},
{
glyphname = P;
layers = (
{
layerId = m01;
shapes = (
{
closed = 1;
nodes = (
(25,0,l),
(347,0,l),
(347,265,l),
(714,265,l),
(725,307,o),
(725,350,qs),
(725,422,o),
(670,550,o),
(575,645,o),
(447,700,o),
(375,700,qs),
(25,700,l)
);
},
{
closed = 1;
nodes = (
(347,436,l),
(347,488,ls),
(347,501,o),
(355,508,qs),
(362,516,o),
(375,516,qs),
(386,516,o),
(404,500,o),
(404,488,qs),
(404,436,l)
);
}
);
userData = {
assembly = "PUSHW[ ]	/* 1 value pushed */
0 
CALL[ ]	/* CallFunction */
SVTCA[0]	/* SetFreedomAndProjectionVectorToAxis */
PUSHW[ ]	/* 1 value pushed */
0 
RCVT[ ]	/* ReadCVT */
IF[ ]	/* If */
PUSHW[ ]	/* 1 value pushed */
9 
MDAP[1]	/* MoveDirectAbsPt */
ELSE[ ]	/* Else */
PUSHW[ ]	/* 2 values pushed */
9 5 
MIAP[0]	/* MoveIndirectAbsPt */
EIF[ ]	/* EndIf */
PUSHW[ ]	/* 3 values pushed */
0 15 3 
CALL[ ]	/* CallFunction */
PUSHW[ ]	/* 3 values pushed */
21 8 3 
CALL[ ]	/* CallFunction */
SVTCA[1]	/* SetFreedomAndProjectionVectorToAxis */
PUSHW[ ]	/* 1 value pushed */
22 
MDAP[1]	/* MoveDirectAbsPt */
PUSHW[ ]	/* 1 value pushed */
21 
MDAP[1]	/* MoveDirectAbsPt */
PUSHW[ ]	/* 1 value pushed */
5 
MDRP[11100]	/* MoveDirectRelPt */
PUSHW[ ]	/* 1 value pushed */
22 
SRP0[ ]	/* SetRefPoint0 */
PUSHW[ ]	/* 1 value pushed */
10 
MDRP[10000]	/* MoveDirectRelPt */
PUSHW[ ]	/* 1 value pushed */
10 
MDAP[1]	/* MoveDirectAbsPt */
PUSHW[ ]	/* 1 value pushed */
9 
MDRP[11100]	/* MoveDirectRelPt */
PUSHW[ ]	/* 1 value pushed */
19 
MDRP[10000]	/* MoveDirectRelPt */
IUP[0]	/* InterpolateUntPts */
IUP[1]	/* InterpolateUntPts */";
};
width = 723;
}
);
note = P;
unicode = (80,112);
},
{
glyphname = Q;
layers = (
{
layerId = m01;
shapes = (
{
closed = 1;
nodes = (
(656,167,o),
(702,284,o),
(702,350,qs),
(702,422,o),
(647,550,o),
(552,645,o),
(424,700,o),
(352,700,qs),
(280,700,o),
(152,645,o),
(57,550,o),
(2,422,o),
(2,350,qs),
(2,277,o),
(57,150,o),
(152,55,o),
(279,0,o),
(352,0,qs),
(416,0,o),
(529,42,o),
(575,80,q),
(468,178,l),
(506,220,l),
(616,120,l)
);
},
{
closed = 1;
nodes = (
(324,310,l),
(324,362,ls),
(324,375,o),
(332,382,qs),
(339,390,o),
(352,390,qs),
(362,390,o),
(372,382,qs),
(380,374,o),
(380,362,qs),
(380,310,l)
);
}
);
userData = {
assembly = "PUSHW[ ]	/* 1 value pushed */
0 
CALL[ ]	/* CallFunction */
SVTCA[0]	/* SetFreedomAndProjectionVectorToAxis */
PUSHW[ ]	/* 1 value pushed */
0 
RCVT[ ]	/* ReadCVT */
IF[ ]	/* If */
PUSHW[ ]	/* 1 value pushed */
5 
MDAP[1]	/* MoveDirectAbsPt */
ELSE[ ]	/* Else */
PUSHW[ ]	/* 2 values pushed */
5 5 
MIAP[0]	/* MoveIndirectAbsPt */
EIF[ ]	/* EndIf */
PUSHW[ ]	/* 1 value pushed */
33 
MDRP[11100]	/* MoveDirectRelPt */
SVTCA[1]	/* SetFreedomAndProjectionVectorToAxis */
PUSHW[ ]	/* 3 values pushed */
32 10 3 
CALL[ ]	/* CallFunction */
PUSHW[ ]	/* 3 values pushed */
20 24 3 
CALL[ ]	/* CallFunction */
IUP[0]	/* InterpolateUntPts */
IUP[1]	/* InterpolateUntPts */";
};
width = 704;
}
);
note = Q;
unicode = (81,113);
},
{
glyphname = R;
layers = (
{
layerId = m01;
shapes = (
{
closed = 1;
nodes = (
(25,0,l),
(348,0,l),
(347,2,o),
(347,7,qs),
(347,265,l),
(714,265,l),
(725,307,o),
(725,350,qs),
(725,422,o),
(670,550,o),
(575,645,o),
(447,700,o),
(375,700,qs),
(25,700,l)
);
},
{
closed = 1;
nodes = (
(347,436,l),
(347,488,ls),
(347,501,o),
(355,508,qs),
(362,516,o),
(375,516,qs),
(386,516,o),
(404,500,o),
(404,488,qs),
(404,436,l)
);
},
{
closed = 1;
nodes = (
(404,4,o),
(402,0,q),
(724,0,l),
(404,225,l),
(404,7,ls)
);
}
);
userData = {
assembly = "PUSHW[ ]	/* 1 value pushed */
0 
CALL[ ]	/* CallFunction */
SVTCA[0]	/* SetFreedomAndProjectionVectorToAxis */
PUSHW[ ]	/* 1 value pushed */
0 
RCVT[ ]	/* ReadCVT */
IF[ ]	/* If */
PUSHW[ ]	/* 1 value pushed */
9 
MDAP[1]	/* MoveDirectAbsPt */
ELSE[ ]	/* Else */
PUSHW[ ]	/* 2 values pushed */
9 5 
MIAP[0]	/* MoveIndirectAbsPt */
EIF[ ]	/* EndIf */
PUSHW[ ]	/* 1 value pushed */
0 
RCVT[ ]	/* ReadCVT */
IF[ ]	/* If */
PUSHW[ ]	/* 1 value pushed */
11 
MDAP[1]	/* MoveDirectAbsPt */
ELSE[ ]	/* Else */
PUSHW[ ]	/* 2 values pushed */
11 5 
MIAP[0]	/* MoveIndirectAbsPt */
EIF[ ]	/* EndIf */
PUSHW[ ]	/* 1 value pushed */
0 
RCVT[ ]	/* ReadCVT */
IF[ ]	/* If */
PUSHW[ ]	/* 1 value pushed */
25 
MDAP[1]	/* MoveDirectAbsPt */
ELSE[ ]	/* Else */
PUSHW[ ]	/* 2 values pushed */
25 5 
MIAP[0]	/* MoveIndirectAbsPt */
EIF[ ]	/* EndIf */
PUSHW[ ]	/* 1 value pushed */
0 
RCVT[ ]	/* ReadCVT */
IF[ ]	/* If */
PUSHW[ ]	/* 1 value pushed */
28 
MDAP[1]	/* MoveDirectAbsPt */
ELSE[ ]	/* Else */
PUSHW[ ]	/* 2 values pushed */
28 5 
MIAP[0]	/* MoveIndirectAbsPt */
EIF[ ]	/* EndIf */
PUSHW[ ]	/* 3 values pushed */
0 17 3 
CALL[ ]	/* CallFunction */
PUSHW[ ]	/* 3 values pushed */
23 8 3 
CALL[ ]	/* CallFunction */
SVTCA[1]	/* SetFreedomAndProjectionVectorToAxis */
PUSHW[ ]	/* 1 value pushed */
29 
MDAP[1]	/* MoveDirectAbsPt */
PUSHW[ ]	/* 1 value pushed */
23 
MDAP[1]	/* MoveDirectAbsPt */
PUSHW[ ]	/* 1 value pushed */
5 
MDRP[11100]	/* MoveDirectRelPt */
PUSHW[ ]	/* 1 value pushed */
29 
SRP0[ ]	/* SetRefPoint0 */
PUSHW[ ]	/* 1 value pushed */
12 
MDRP[10000]	/* MoveDirectRelPt */
PUSHW[ ]	/* 1 value pushed */
12 
MDAP[1]	/* MoveDirectAbsPt */
PUSHW[ ]	/* 1 value pushed */
9 
MDRP[11100]	/* MoveDirectRelPt */
PUSHW[ ]	/* 1 value pushed */
21 
MDRP[10000]	/* MoveDirectRelPt */
PUSHW[ ]	/* 1 value pushed */
23 
SRP0[ ]	/* SetRefPoint0 */
PUSHW[ ]	/* 1 value pushed */
24 
MDRP[10000]	/* MoveDirectRelPt */
PUSHW[ ]	/* 1 value pushed */
5 
SRP0[ ]	/* SetRefPoint0 */
PUSHW[ ]	/* 1 value pushed */
25 
MDRP[10000]	/* MoveDirectRelPt */
PUSHW[ ]	/* 1 value pushed */
25 
MDAP[1]	/* MoveDirectAbsPt */
PUSHW[ ]	/* 1 value pushed */
23 
SRP0[ ]	/* SetRefPoint0 */
PUSHW[ ]	/* 1 value pushed */
26 
MDRP[10000]	/* MoveDirectRelPt */
PUSHW[ ]	/* 1 value pushed */
26 
MDAP[1]	/* MoveDirectAbsPt */
IUP[0]	/* InterpolateUntPts */
IUP[1]	/* InterpolateUntPts */";
};
width = 728;
}
);
note = R;
unicode = (82,114);
},
{
glyphname = S;
layers = (
{
layerId = m01;
shapes = (
{
closed = 1;
nodes = (
(464,426,o),
(448,442,o),
(448,454,qs),
(448,465,o),
(465,483,o),
(476,483,qs),
(687,483,l),
(668,531,o),
(602,610,o),
(518,668,o),
(418,700,o),
(363,700,qs),
(291,700,o),
(163,645,o),
(68,550,o),
(13,422,o),
(13,350,qs),
(13,281,l),
(249,281,ls),
(261,281,o),
(277,265,o),
(277,253,qs),
(277,242,o),
(261,224,o),
(249,224,qs),
(13,224,l),
(13,0,l),
(713,0,l),
(713,350,ls),
(713,370,o),
(709,407,o),
(705,426,q),
(476,426,ls)
);
}
);
userData = {
assembly = "PUSHW[ ]	/* 1 value pushed */
0 
CALL[ ]	/* CallFunction */
SVTCA[0]	/* SetFreedomAndProjectionVectorToAxis */
PUSHW[ ]	/* 1 value pushed */
0 
RCVT[ ]	/* ReadCVT */
IF[ ]	/* If */
PUSHW[ ]	/* 1 value pushed */
4 
MDAP[1]	/* MoveDirectAbsPt */
ELSE[ ]	/* Else */
PUSHW[ ]	/* 2 values pushed */
4 5 
MIAP[0]	/* MoveIndirectAbsPt */
EIF[ ]	/* EndIf */
PUSHW[ ]	/* 3 values pushed */
20 26 3 
CALL[ ]	/* CallFunction */
PUSHW[ ]	/* 3 values pushed */
32 13 3 
CALL[ ]	/* CallFunction */
PUSHW[ ]	/* 1 value pushed */
4 
SRP0[ ]	/* SetRefPoint0 */
PUSHW[ ]	/* 1 value pushed */
6 
MDRP[11100]	/* MoveDirectRelPt */
IUP[0]	/* InterpolateUntPts */
IUP[1]	/* InterpolateUntPts */";
};
width = 726;
}
);
note = S;
unicode = (83,115);
},
{
glyphname = T;
layers = (
{
layerId = m01;
shapes = (
{
closed = 1;
nodes = (
(541,616,o),
(457,670,o),
(360,700,o),
(307,700,qs),
(253,700,o),
(155,669,o),
(72,613,o),
(7,536,o),
(-13,490,q),
(120,490,l),
(120,0,l),
(496,0,l),
(496,490,l),
(629,490,l),
(608,538,o)
);
}
);
userData = {
assembly = "PUSHW[ ]	/* 1 value pushed */
0 
CALL[ ]	/* CallFunction */
SVTCA[0]	/* SetFreedomAndProjectionVectorToAxis */
PUSHW[ ]	/* 1 value pushed */
0 
RCVT[ ]	/* ReadCVT */
IF[ ]	/* If */
PUSHW[ ]	/* 1 value pushed */
2 
MDAP[1]	/* MoveDirectAbsPt */
ELSE[ ]	/* Else */
PUSHW[ ]	/* 2 values pushed */
2 5 
MIAP[0]	/* MoveIndirectAbsPt */
EIF[ ]	/* EndIf */
PUSHW[ ]	/* 3 values pushed */
10 4 3 
CALL[ ]	/* CallFunction */
PUSHW[ ]	/* 1 value pushed */
4 
SRP0[ ]	/* SetRefPoint0 */
PUSHW[ ]	/* 1 value pushed */
0 
MDRP[10000]	/* MoveDirectRelPt */
IUP[0]	/* InterpolateUntPts */
IUP[1]	/* InterpolateUntPts */";
};
width = 616;
}
);
note = T;
unicode = (84,116);
},
{
glyphname = U;
layers = (
{
layerId = m01;
shapes = (
{
closed = 1;
nodes = (
(392,464,ls),
(392,452,o),
(376,436,o),
(364,436,qs),
(351,436,o),
(335,451,o),
(335,464,qs),
(335,700,l),
(13,700,l),
(13,350,ls),
(13,278,o),
(68,150,o),
(163,55,o),
(291,0,o),
(363,0,qs),
(435,0,o),
(563,55,o),
(658,150,o),
(713,278,o),
(713,350,qs),
(713,700,l),
(392,700,l)
);
}
);
userData = {
assembly = "PUSHW[ ]	/* 1 value pushed */
0 
CALL[ ]	/* CallFunction */
SVTCA[0]	/* SetFreedomAndProjectionVectorToAxis */
PUSHW[ ]	/* 1 value pushed */
0 
RCVT[ ]	/* ReadCVT */
IF[ ]	/* If */
PUSHW[ ]	/* 1 value pushed */
6 
MDAP[1]	/* MoveDirectAbsPt */
ELSE[ ]	/* Else */
PUSHW[ ]	/* 2 values pushed */
6 5 
MIAP[0]	/* MoveIndirectAbsPt */
EIF[ ]	/* EndIf */
SVTCA[1]	/* SetFreedomAndProjectionVectorToAxis */
PUSHW[ ]	/* 1 value pushed */
22 
MDAP[1]	/* MoveDirectAbsPt */
PUSHW[ ]	/* 1 value pushed */
20 
MDAP[1]	/* MoveDirectAbsPt */
PUSHW[ ]	/* 1 value pushed */
1 
MDRP[11100]	/* MoveDirectRelPt */
PUSHW[ ]	/* 1 value pushed */
22 
SRP0[ ]	/* SetRefPoint0 */
PUSHW[ ]	/* 1 value pushed */
11 
MDRP[10000]	/* MoveDirectRelPt */
PUSHW[ ]	/* 1 value pushed */
11 
MDAP[1]	/* MoveDirectAbsPt */
PUSHW[ ]	/* 1 value pushed */
14 
MDRP[11100]	/* MoveDirectRelPt */
IUP[0]	/* InterpolateUntPts */
IUP[1]	/* InterpolateUntPts */";
};
width = 727;
}
);
note = U;
unicode = (85,117,217,218,219,220,249,250,251,252);
},
{
glyphname = V;
layers = (
{
layerId = m01;
shapes = (
{
closed = 1;
nodes = (
(84,700,l),
(359,334,l),
(641,700,l)
);
},
{
closed = 1;
nodes = (
(385,269,o),
(377,262,q),
(367,256,o),
(356,257,qs),
(343,260,o),
(338,268,q),
(13,700,l),
(13,350,ls),
(13,278,o),
(68,150,o),
(163,55,o),
(291,0,o),
(363,0,qs),
(435,0,o),
(563,55,o),
(658,150,o),
(713,278,o),
(713,350,qs),
(713,700,l),
(388,278,l)
);
}
);
userData = {
assembly = "PUSHW[ ]	/* 1 value pushed */
0 
CALL[ ]	/* CallFunction */
SVTCA[0]	/* SetFreedomAndProjectionVectorToAxis */
PUSHW[ ]	/* 1 value pushed */
0 
RCVT[ ]	/* ReadCVT */
IF[ ]	/* If */
PUSHW[ ]	/* 1 value pushed */
9 
MDAP[1]	/* MoveDirectAbsPt */
ELSE[ ]	/* Else */
PUSHW[ ]	/* 2 values pushed */
9 5 
MIAP[0]	/* MoveIndirectAbsPt */
EIF[ ]	/* EndIf */
IUP[0]	/* InterpolateUntPts */
IUP[1]	/* InterpolateUntPts */";
};
width = 727;
}
);
note = V;
unicode = (86,118);
},
{
glyphname = W;
layers = (
{
layerId = m01;
shapes = (
{
closed = 1;
nodes = (
(505,462,ls),
(505,449,o),
(497,442,qs),
(489,434,o),
(477,434,qs),
(466,434,o),
(457,443,qs),
(448,451,o),
(448,462,qs),
(448,699,l),
(278,699,l),
(278,462,ls),
(278,450,o),
(270,442,qs),
(260,434,o),
(250,434,qs),
(239,434,o),
(221,451,o),
(221,462,qs),
(221,699,l),
(13,699,l),
(13,349,ls),
(13,280,o),
(63,158,o),
(150,64,o),
(268,6,o),
(335,0,q),
(335,235,ls),
(335,248,o),
(343,255,qs),
(350,263,o),
(363,263,qs),
(373,263,o),
(383,255,qs),
(391,247,o),
(391,235,qs),
(391,0,l),
(459,6,o),
(576,64,o),
(663,158,o),
(713,280,o),
(713,349,qs),
(713,699,l),
(505,699,l)
);
}
);
userData = {
assembly = "PUSHW[ ]	/* 1 value pushed */
0 
CALL[ ]	/* CallFunction */
SVTCA[0]	/* SetFreedomAndProjectionVectorToAxis */
PUSHW[ ]	/* 1 value pushed */
0 
RCVT[ ]	/* ReadCVT */
IF[ ]	/* If */
PUSHW[ ]	/* 1 value pushed */
6 
MDAP[1]	/* MoveDirectAbsPt */
ELSE[ ]	/* Else */
PUSHW[ ]	/* 2 values pushed */
6 5 
MIAP[0]	/* MoveIndirectAbsPt */
EIF[ ]	/* EndIf */
PUSHW[ ]	/* 1 value pushed */
0 
RCVT[ ]	/* ReadCVT */
IF[ ]	/* If */
PUSHW[ ]	/* 1 value pushed */
16 
MDAP[1]	/* MoveDirectAbsPt */
ELSE[ ]	/* Else */
PUSHW[ ]	/* 2 values pushed */
16 5 
MIAP[0]	/* MoveIndirectAbsPt */
EIF[ ]	/* EndIf */
SVTCA[1]	/* SetFreedomAndProjectionVectorToAxis */
PUSHW[ ]	/* 1 value pushed */
44 
MDAP[1]	/* MoveDirectAbsPt */
PUSHW[ ]	/* 1 value pushed */
21 
SRP0[ ]	/* SetRefPoint0 */
PUSHW[ ]	/* 1 value pushed */
31 
MDRP[11100]	/* MoveDirectRelPt */
NPUSHW[ ]	/* 3 values pushed */
255 31 1 
DELTAP1[ ]	/* DeltaExceptionP1 */
PUSHW[ ]	/* 1 value pushed */
42 
MDRP[11100]	/* MoveDirectRelPt */
NPUSHW[ ]	/* 3 values pushed */
255 42 1 
DELTAP1[ ]	/* DeltaExceptionP1 */
PUSHW[ ]	/* 1 value pushed */
1 
MDRP[11100]	/* MoveDirectRelPt */
PUSHW[ ]	/* 1 value pushed */
21 
SRP0[ ]	/* SetRefPoint0 */
PUSHW[ ]	/* 1 value pushed */
24 
MDRP[11100]	/* MoveDirectRelPt */
PUSHW[ ]	/* 1 value pushed */
31 
SRP0[ ]	/* SetRefPoint0 */
PUSHW[ ]	/* 1 value pushed */
34 
MDRP[11100]	/* MoveDirectRelPt */
IUP[0]	/* InterpolateUntPts */
IUP[1]	/* InterpolateUntPts */";
};
width = 726;
}
);
note = W;
unicode = (87,119);
},
{
glyphname = X;
layers = (
{
layerId = m01;
shapes = (
{
closed = 1;
nodes = (
(547,654,o),
(430,700,o),
(363,700,qs),
(296,700,o),
(179,654,o),
(132,613,q),
(363,386,l),
(594,613,l)
);
},
{
closed = 1;
nodes = (
(55,527,o),
(13,413,o),
(13,350,qs),
(13,44,l),
(322,347,l),
(92,572,l)
);
},
{
closed = 1;
nodes = (
(713,44,l),
(713,350,ls),
(713,413,o),
(671,527,o),
(634,572,q),
(404,347,l)
);
},
{
closed = 1;
nodes = (
(676,0,l),
(363,307,l),
(50,0,l)
);
}
);
userData = {
assembly = "PUSHW[ ]	/* 1 value pushed */
0 
CALL[ ]	/* CallFunction */
SVTCA[0]	/* SetFreedomAndProjectionVectorToAxis */
PUSHW[ ]	/* 1 value pushed */
0 
RCVT[ ]	/* ReadCVT */
IF[ ]	/* If */
PUSHW[ ]	/* 1 value pushed */
21 
MDAP[1]	/* MoveDirectAbsPt */
ELSE[ ]	/* Else */
PUSHW[ ]	/* 2 values pushed */
21 5 
MIAP[0]	/* MoveIndirectAbsPt */
EIF[ ]	/* EndIf */
IUP[0]	/* InterpolateUntPts */
IUP[1]	/* InterpolateUntPts */";
};
width = 727;
}
);
note = X;
unicode = (88,120);
},
{
glyphname = Y;
layers = (
{
layerId = m01;
shapes = (
{
closed = 1;
nodes = (
(545,655,o),
(430,700,o),
(364,700,qs),
(298,700,o),
(183,655,o),
(137,616,q),
(364,407,l),
(591,616,l)
);
},
{
closed = 1;
nodes = (
(390,130,ls),
(390,118,o),
(382,111,qs),
(373,102,o),
(362,102,qs),
(350,102,o),
(342,110,qs),
(334,117,o),
(334,130,qs),
(334,132,l),
(333,132,l),
(333,358,l),
(97,576,l),
(58,530,o),
(14,415,o),
(14,350,qs),
(14,0,l),
(714,0,l),
(714,350,ls),
(714,415,o),
(670,530,o),
(631,576,q),
(390,354,l)
);
}
);
userData = {
assembly = "PUSHW[ ]	/* 1 value pushed */
0 
CALL[ ]	/* CallFunction */
SVTCA[0]	/* SetFreedomAndProjectionVectorToAxis */
PUSHW[ ]	/* 1 value pushed */
0 
RCVT[ ]	/* ReadCVT */
IF[ ]	/* If */
PUSHW[ ]	/* 1 value pushed */
12 
MDAP[1]	/* MoveDirectAbsPt */
ELSE[ ]	/* Else */
PUSHW[ ]	/* 2 values pushed */
12 5 
MIAP[0]	/* MoveIndirectAbsPt */
EIF[ ]	/* EndIf */
PUSHW[ ]	/* 1 value pushed */
25 
MDRP[11100]	/* MoveDirectRelPt */
NPUSHW[ ]	/* 27 values pushed */
7 25 23 25 39 25 55 25 71 25 87 25 103 25 119 25 135 25 151 25 167 25 183 25 199 25 13 
DELTAP1[ ]	/* DeltaExceptionP1 */
NPUSHW[ ]	/* 5 values pushed */
214 25 230 25 2 
DELTAP1[ ]	/* DeltaExceptionP1 */
SVTCA[1]	/* SetFreedomAndProjectionVectorToAxis */
PUSHW[ ]	/* 1 value pushed */
31 
MDAP[1]	/* MoveDirectAbsPt */
PUSHW[ ]	/* 1 value pushed */
29 
MDAP[1]	/* MoveDirectAbsPt */
PUSHW[ ]	/* 1 value pushed */
12 
MDRP[11100]	/* MoveDirectRelPt */
PUSHW[ ]	/* 1 value pushed */
31 
SRP0[ ]	/* SetRefPoint0 */
PUSHW[ ]	/* 1 value pushed */
13 
MDRP[10000]	/* MoveDirectRelPt */
PUSHW[ ]	/* 1 value pushed */
13 
MDAP[1]	/* MoveDirectAbsPt */
PUSHW[ ]	/* 1 value pushed */
19 
MDRP[11100]	/* MoveDirectRelPt */
PUSHW[ ]	/* 1 value pushed */
21 
MDRP[10000]	/* MoveDirectRelPt */
PUSHW[ ]	/* 1 value pushed */
21 
MDAP[1]	/* MoveDirectAbsPt */
IUP[0]	/* InterpolateUntPts */
IUP[1]	/* InterpolateUntPts */";
};
width = 727;
}
);
note = Y;
unicode = (89,121,221,253,255,376);
},
{
glyphname = Z;
layers = (
{
layerId = m01;
shapes = (
{
closed = 1;
nodes = (
(17,407,o),
(13,370,o),
(13,350,qs),
(13,0,l),
(713,0,l),
(713,224,l),
(477,224,ls),
(465,224,o),
(449,242,o),
(449,253,qs),
(449,265,o),
(465,281,o),
(477,281,qs),
(713,281,l),
(713,350,ls),
(713,422,o),
(658,550,o),
(563,645,o),
(435,700,o),
(363,700,qs),
(308,700,o),
(208,668,o),
(124,610,o),
(59,531,o),
(39,483,q),
(250,483,ls),
(262,483,o),
(269,474,qs),
(278,465,o),
(278,454,qs),
(278,442,o),
(262,426,o),
(250,426,qs),
(21,426,l)
);
}
);
userData = {
assembly = "PUSHW[ ]	/* 1 value pushed */
0 
CALL[ ]	/* CallFunction */
SVTCA[0]	/* SetFreedomAndProjectionVectorToAxis */
PUSHW[ ]	/* 1 value pushed */
0 
RCVT[ ]	/* ReadCVT */
IF[ ]	/* If */
PUSHW[ ]	/* 1 value pushed */
28 
MDAP[1]	/* MoveDirectAbsPt */
ELSE[ ]	/* Else */
PUSHW[ ]	/* 2 values pushed */
28 5 
MIAP[0]	/* MoveIndirectAbsPt */
EIF[ ]	/* EndIf */
PUSHW[ ]	/* 3 values pushed */
13 7 3 
CALL[ ]	/* CallFunction */
PUSHW[ ]	/* 3 values pushed */
0 20 3 
CALL[ ]	/* CallFunction */
PUSHW[ ]	/* 1 value pushed */
28 
SRP0[ ]	/* SetRefPoint0 */
PUSHW[ ]	/* 1 value pushed */
26 
MDRP[11100]	/* MoveDirectRelPt */
IUP[0]	/* InterpolateUntPts */
IUP[1]	/* InterpolateUntPts */";
};
width = 727;
}
);
note = Z;
unicode = (90,122);
},
{
glyphname = bracketleft;
layers = (
{
layerId = m01;
shapes = (
{
closed = 1;
nodes = (
(270,638,l),
(690,871,l),
(494,871,ls),
(397,871,o),
(226,797,o),
(99,670,o),
(25,499,o),
(25,401,qs),
(25,304,o),
(99,133,o),
(226,6,o),
(397,-68,o),
(494,-68,qs),
(691,-68,l),
(270,127,l)
);
}
);
userData = {
assembly = "PUSHW[ ]	/* 1 value pushed */
0 
CALL[ ]	/* CallFunction */
SVTCA[0]	/* SetFreedomAndProjectionVectorToAxis */
PUSHW[ ]	/* 3 values pushed */
12 0 3 
CALL[ ]	/* CallFunction */
SVTCA[1]	/* SetFreedomAndProjectionVectorToAxis */
PUSHW[ ]	/* 3 values pushed */
13 6 3 
CALL[ ]	/* CallFunction */
IUP[0]	/* InterpolateUntPts */
IUP[1]	/* InterpolateUntPts */";
};
width = 716;
}
);
note = bracketleft;
unicode = 91;
},
{
glyphname = backslash;
layers = (
{
layerId = m01;
shapes = (
{
closed = 1;
nodes = (
(247,664,o),
(189,707,o),
(154,707,qs),
(147,707,o),
(134,705,o),
(127,703,qs),
(106,697,o),
(73,671,o),
(54,635,o),
(48,594,o),
(54,573,qs),
(212,2,l),
(436,0,l),
(257,629,ls)
);
},
{
closed = 1;
nodes = (
(128,703,l),
(128,703,l)
);
},
{
closed = 1;
nodes = (
(127,702,l),
(127,702,l)
);
}
);
userData = {
assembly = "PUSHW[ ]	/* 1 value pushed */
0 
CALL[ ]	/* CallFunction */
SVTCA[0]	/* SetFreedomAndProjectionVectorToAxis */
PUSHW[ ]	/* 1 value pushed */
0 
RCVT[ ]	/* ReadCVT */
IF[ ]	/* If */
PUSHW[ ]	/* 1 value pushed */
0 
MDAP[1]	/* MoveDirectAbsPt */
ELSE[ ]	/* Else */
PUSHW[ ]	/* 2 values pushed */
0 5 
MIAP[0]	/* MoveIndirectAbsPt */
EIF[ ]	/* EndIf */
IUP[0]	/* InterpolateUntPts */
IUP[1]	/* InterpolateUntPts */";
};
width = 486;
}
);
note = backslash;
unicode = 92;
},
{
glyphname = bracketright;
layers = (
{
layerId = m01;
shapes = (
{
closed = 1;
nodes = (
(446,676,l),
(446,164,l),
(26,-68,l),
(221,-68,ls),
(319,-68,o),
(490,6,o),
(617,133,o),
(691,304,o),
(691,401,qs),
(691,499,o),
(617,670,o),
(490,797,o),
(319,871,o),
(221,871,qs),
(25,871,l)
);
}
);
userData = {
assembly = "PUSHW[ ]	/* 1 value pushed */
0 
CALL[ ]	/* CallFunction */
SVTCA[0]	/* SetFreedomAndProjectionVectorToAxis */
PUSHW[ ]	/* 3 values pushed */
0 10 3 
CALL[ ]	/* CallFunction */
SVTCA[1]	/* SetFreedomAndProjectionVectorToAxis */
PUSHW[ ]	/* 3 values pushed */
5 12 3 
CALL[ ]	/* CallFunction */
IUP[0]	/* InterpolateUntPts */
IUP[1]	/* InterpolateUntPts */";
};
width = 716;
}
);
note = bracketright;
unicode = 93;
},
{
glyphname = underscore;
layers = (
{
layerId = m01;
shapes = (
{
closed = 1;
nodes = (
(14,0,l),
(606,0,ls),
(628,0,o),
(666,17,o),
(695,45,o),
(712,83,o),
(712,105,qs),
(712,127,o),
(695,165,o),
(666,194,o),
(628,210,o),
(606,210,qs),
(14,210,l)
);
}
);
userData = {
assembly = "PUSHW[ ]	/* 1 value pushed */
0 
CALL[ ]	/* CallFunction */
SVTCA[0]	/* SetFreedomAndProjectionVectorToAxis */
PUSHW[ ]	/* 1 value pushed */
0 
RCVT[ ]	/* ReadCVT */
IF[ ]	/* If */
PUSHW[ ]	/* 1 value pushed */
10 
MDAP[1]	/* MoveDirectAbsPt */
ELSE[ ]	/* Else */
PUSHW[ ]	/* 2 values pushed */
10 5 
MIAP[0]	/* MoveIndirectAbsPt */
EIF[ ]	/* EndIf */
PUSHW[ ]	/* 1 value pushed */
0 
MDRP[11100]	/* MoveDirectRelPt */
IUP[0]	/* InterpolateUntPts */
IUP[1]	/* InterpolateUntPts */";
};
width = 722;
}
);
note = underscore;
unicode = 95;
},
{
glyphname = asciitilde;
layers = (
{
layerId = m01;
shapes = (
{
closed = 1;
nodes = (
(654,487,o),
(606,482,o),
(583,482,qs),
(525,482,o),
(468,497,qs),
(335,532,l),
(310,536,o),
(266,539,o),
(246,539,qs),
(216,539,o),
(169,534,o),
(152,531,qs),
(133,527,o),
(118,522,qs),
(64,508,o),
(11,454,o),
(10,410,qs),
(10,365,o),
(68,308,o),
(112,308,qs),
(131,308,o),
(144,312,qs),
(169,319,ls),
(191,325,o),
(235,332,o),
(258,332,qs),
(300,332,o),
(342,320,qs),
(447,292,ls),
(509,275,o),
(569,275,qs),
(639,275,o),
(706,296,q),
(771,511,l),
(678,492,ls)
);
}
);
userData = {
assembly = "PUSHW[ ]	/* 1 value pushed */
0 
CALL[ ]	/* CallFunction */
SVTCA[0]	/* SetFreedomAndProjectionVectorToAxis */
PUSHW[ ]	/* 3 values pushed */
31 3 3 
CALL[ ]	/* CallFunction */
PUSHW[ ]	/* 3 values pushed */
25 8 3 
CALL[ ]	/* CallFunction */
PUSHW[ ]	/* 3 values pushed */
0 8 25 
SRP1[ ]	/* SetRefPoint1 */
SRP2[ ]	/* SetRefPoint2 */
IP[ ]	/* InterpolatePts */
PUSHW[ ]	/* 1 value pushed */
25 
SRP0[ ]	/* SetRefPoint0 */
PUSHW[ ]	/* 1 value pushed */
28 
MDRP[10000]	/* MoveDirectRelPt */
PUSHW[ ]	/* 1 value pushed */
28 
MDAP[1]	/* MoveDirectAbsPt */
IUP[0]	/* InterpolateUntPts */
IUP[1]	/* InterpolateUntPts */";
};
width = 778;
}
);
note = asciitilde;
unicode = 126;
},
{
glyphname = multiply;
layers = (
{
layerId = m01;
shapes = (
{
closed = 1;
nodes = (
(592,497,ls),
(607,512,o),
(623,551,o),
(623,591,o),
(607,630,o),
(592,645,qs),
(577,661,o),
(538,676,o),
(518,676,qs),
(498,676,o),
(459,661,o),
(443,645,qs),
(346,547,l),
(248,645,ls),
(233,661,o),
(194,676,o),
(174,676,qs),
(154,676,o),
(115,661,o),
(99,645,qs),
(84,630,o),
(68,591,o),
(68,550,o),
(84,511,o),
(99,496,qs),
(197,398,l),
(25,226,l),
(174,77,l),
(346,250,l),
(519,78,l),
(667,227,l),
(495,399,l)
);
}
);
userData = {
assembly = "PUSHW[ ]	/* 1 value pushed */
0 
CALL[ ]	/* CallFunction */
SVTCA[0]	/* SetFreedomAndProjectionVectorToAxis */
PUSHW[ ]	/* 3 values pushed */
14 3 3 
CALL[ ]	/* CallFunction */
PUSHW[ ]	/* 1 value pushed */
14 
SRP0[ ]	/* SetRefPoint0 */
PUSHW[ ]	/* 1 value pushed */
22 
MDRP[10000]	/* MoveDirectRelPt */
IUP[0]	/* InterpolateUntPts */
IUP[1]	/* InterpolateUntPts */";
};
width = 692;
}
);
note = multiply;
unicode = 215;
},
{
glyphname = divide;
layers = (
{
layerId = m01;
shapes = (
{
closed = 1;
nodes = (
(459,692,o),
(438,719,o),
(406,736,o),
(371,745,o),
(356,745,qs),
(341,745,o),
(306,737,o),
(276,719,o),
(256,692,o),
(256,674,qs),
(256,540,l),
(459,540,l),
(459,674,ls)
);
},
{
closed = 1;
nodes = (
(25,300,l),
(617,300,ls),
(639,300,o),
(677,317,o),
(706,345,o),
(723,383,o),
(723,405,qs),
(723,427,o),
(706,466,o),
(677,494,o),
(639,511,o),
(617,511,qs),
(25,511,l)
);
},
{
closed = 1;
nodes = (
(438,252,o),
(407,269,o),
(371,278,o),
(356,278,qs),
(340,278,o),
(305,270,o),
(275,253,o),
(256,226,o),
(256,207,qs),
(256,73,l),
(459,73,l),
(459,207,ls),
(459,225,o)
);
}
);
userData = {
assembly = "PUSHW[ ]	/* 1 value pushed */
0 
CALL[ ]	/* CallFunction */
SVTCA[0]	/* SetFreedomAndProjectionVectorToAxis */
PUSHW[ ]	/* 3 values pushed */
34 28 3 
CALL[ ]	/* CallFunction */
PUSHW[ ]	/* 3 values pushed */
7 1 3 
CALL[ ]	/* CallFunction */
PUSHW[ ]	/* 3 values pushed */
13 23 3 
CALL[ ]	/* CallFunction */
SVTCA[1]	/* SetFreedomAndProjectionVectorToAxis */
PUSHW[ ]	/* 3 values pushed */
0 1 3 
CALL[ ]	/* CallFunction */
PUSHW[ ]	/* 1 value pushed */
0 
SRP0[ ]	/* SetRefPoint0 */
PUSHW[ ]	/* 1 value pushed */
26 
MDRP[10000]	/* MoveDirectRelPt */
PUSHW[ ]	/* 1 value pushed */
1 
SRP0[ ]	/* SetRefPoint0 */
PUSHW[ ]	/* 1 value pushed */
28 
MDRP[10000]	/* MoveDirectRelPt */
IUP[0]	/* InterpolateUntPts */
IUP[1]	/* InterpolateUntPts */";
};
width = 748;
}
);
note = divide;
unicode = 247;
},
{
glyphname = quoteleft;
layers = (
{
layerId = m01;
shapes = (
{
closed = 1;
nodes = (
(140,915,l),
(7,915,l),
(7,680,ls),
(7,662,o),
(28,635,o),
(59,618,o),
(95,609,o),
(110,609,qs),
(126,609,o),
(161,617,o),
(191,634,o),
(210,661,o),
(210,680,qs),
(210,814,l),
(140,814,l)
);
}
);
userData = {
assembly = "PUSHW[ ]	/* 1 value pushed */
0 
CALL[ ]	/* CallFunction */
SVTCA[0]	/* SetFreedomAndProjectionVectorToAxis */
PUSHW[ ]	/* 3 values pushed */
14 6 3 
CALL[ ]	/* CallFunction */
SVTCA[1]	/* SetFreedomAndProjectionVectorToAxis */
PUSHW[ ]	/* 3 values pushed */
14 12 3 
CALL[ ]	/* CallFunction */
IUP[0]	/* InterpolateUntPts */
IUP[1]	/* InterpolateUntPts */";
};
width = 218;
}
);
note = quoteleft;
unicode = 8216;
},
{
glyphname = quoteright;
layers = (
{
layerId = m01;
shapes = (
{
closed = 1;
nodes = (
(207,988,o),
(176,1005,o),
(140,1014,o),
(125,1014,qs),
(109,1014,o),
(74,1006,o),
(44,989,o),
(25,962,o),
(25,943,qs),
(25,809,l),
(95,809,l),
(95,708,l),
(228,708,l),
(228,943,ls),
(228,961,o)
);
}
);
userData = {
assembly = "PUSHW[ ]	/* 1 value pushed */
0 
CALL[ ]	/* CallFunction */
SVTCA[0]	/* SetFreedomAndProjectionVectorToAxis */
PUSHW[ ]	/* 3 values pushed */
10 3 3 
CALL[ ]	/* CallFunction */
SVTCA[1]	/* SetFreedomAndProjectionVectorToAxis */
PUSHW[ ]	/* 3 values pushed */
1 2 3 
CALL[ ]	/* CallFunction */
IUP[0]	/* InterpolateUntPts */
IUP[1]	/* InterpolateUntPts */";
};
width = 253;
}
);
note = quoteright;
unicode = 8217;
},
{
glyphname = quotedblleft;
layers = (
{
layerId = m01;
shapes = (
{
closed = 1;
nodes = (
(386,915,l),
(254,915,l),
(254,680,ls),
(254,662,o),
(275,635,o),
(306,618,o),
(342,609,o),
(357,609,qs),
(373,609,o),
(408,617,o),
(438,634,o),
(457,661,o),
(457,680,qs),
(457,814,l),
(386,814,l)
);
},
{
closed = 1;
nodes = (
(7,915,l),
(7,680,ls),
(7,662,o),
(28,635,o),
(59,618,o),
(95,609,o),
(110,609,qs),
(126,609,o),
(161,617,o),
(191,634,o),
(210,661,o),
(210,680,qs),
(210,814,l),
(140,814,l),
(140,915,l)
);
}
);
userData = {
assembly = "PUSHW[ ]	/* 1 value pushed */
0 
CALL[ ]	/* CallFunction */
SVTCA[0]	/* SetFreedomAndProjectionVectorToAxis */
PUSHW[ ]	/* 3 values pushed */
14 6 3 
CALL[ ]	/* CallFunction */
PUSHW[ ]	/* 1 value pushed */
14 
SRP0[ ]	/* SetRefPoint0 */
PUSHW[ ]	/* 1 value pushed */
15 
MDRP[10000]	/* MoveDirectRelPt */
PUSHW[ ]	/* 1 value pushed */
6 
SRP0[ ]	/* SetRefPoint0 */
PUSHW[ ]	/* 1 value pushed */
22 
MDRP[10000]	/* MoveDirectRelPt */
SVTCA[1]	/* SetFreedomAndProjectionVectorToAxis */
PUSHW[ ]	/* 1 value pushed */
30 
MDAP[1]	/* MoveDirectAbsPt */
PUSHW[ ]	/* 1 value pushed */
12 
MDAP[1]	/* MoveDirectAbsPt */
PUSHW[ ]	/* 1 value pushed */
14 
MDRP[11100]	/* MoveDirectRelPt */
PUSHW[ ]	/* 1 value pushed */
30 
SRP0[ ]	/* SetRefPoint0 */
PUSHW[ ]	/* 1 value pushed */
28 
MDRP[10000]	/* MoveDirectRelPt */
PUSHW[ ]	/* 1 value pushed */
28 
MDAP[1]	/* MoveDirectAbsPt */
PUSHW[ ]	/* 1 value pushed */
15 
MDRP[11100]	/* MoveDirectRelPt */
IUP[0]	/* InterpolateUntPts */
IUP[1]	/* InterpolateUntPts */";
};
width = 465;
}
);
note = quotedblleft;
unicode = 8220;
},
{
glyphname = quotedblright;
layers = (
{
layerId = m01;
shapes = (
{
closed = 1;
nodes = (
(207,988,o),
(176,1005,o),
(140,1014,o),
(125,1014,qs),
(109,1014,o),
(74,1006,o),
(44,989,o),
(25,962,o),
(25,943,qs),
(25,809,l),
(95,809,l),
(95,708,l),
(228,708,l),
(228,943,ls),
(228,961,o)
);
},
{
closed = 1;
nodes = (
(372,1014,qs),
(356,1014,o),
(321,1006,o),
(291,989,o),
(272,962,o),
(272,943,qs),
(272,809,l),
(342,809,l),
(342,708,l),
(475,708,l),
(475,943,ls),
(475,971,o),
(444,992,qs),
(415,1014,o)
);
}
